<?xml version="1.0" encoding="UTF-8"?>
<svg version="1.1" xmlns="http://www.w3.org/2000/svg" width="492" height="455">
<path d="M0 0 C162.36 0 324.72 0 492 0 C492 150.15 492 300.3 492 455 C329.64 455 167.28 455 0 455 C0 304.85 0 154.7 0 0 Z " fill="#FEFEFE" transform="translate(0,0)"/>
<path d="M0 0 C149.16 0 298.32 0 452 0 C452 30.14979757 452 30.14979757 446.0703125 37.33984375 C445.10738281 38.13068359 445.10738281 38.13068359 444.125 38.9375 C443.48820312 39.48277344 442.85140625 40.02804687 442.1953125 40.58984375 C437.27204572 43.75229803 432.52600029 44.2508354 426.77161598 44.25726891 C425.7087488 44.26252802 425.7087488 44.26252802 424.62440956 44.26789337 C422.24998558 44.2771975 419.8758074 44.27228666 417.50137329 44.26742554 C415.78185272 44.27116229 414.06233384 44.27576391 412.34281766 44.28115618 C407.61734292 44.29339836 402.89193892 44.29312428 398.16645193 44.29076743 C393.07023113 44.29035958 387.97403309 44.30139535 382.87782288 44.31088257 C372.89362845 44.32749978 362.90945764 44.33299242 352.92525055 44.33410732 C344.81094623 44.33505737 336.69664972 44.3391655 328.58234787 44.34550858 C305.58256876 44.36312227 282.58280833 44.37234714 259.58302243 44.37084763 C257.72289801 44.37072776 257.72289801 44.37072776 255.82519531 44.37060547 C254.58360045 44.37052371 253.34200558 44.37044195 252.06278662 44.37035771 C231.93501033 44.36954457 211.80730883 44.38868878 191.67955418 44.4168822 C171.01817353 44.44559504 150.35682937 44.45942341 129.69542825 44.45769465 C118.09330295 44.45703024 106.49125607 44.46254509 94.88914871 44.48405075 C85.01210727 44.50224138 75.13517981 44.50662723 65.2581289 44.4930319 C60.21815313 44.48649182 55.17839618 44.48642266 50.13844109 44.5037384 C45.52440646 44.51942792 40.9107649 44.51664772 36.2967401 44.49917014 C34.62787659 44.49609117 32.95898404 44.49976631 31.29015477 44.51089029 C21.79393558 44.56999573 14.34016339 44.59588974 6.7578125 38.0703125 C6.21898437 37.42835938 5.68015625 36.78640625 5.125 36.125 C4.29355469 35.16980469 4.29355469 35.16980469 3.4453125 34.1953125 C-3.26687144 24.00004933 0 11.85357915 0 0 Z " fill="#E95730" transform="translate(17,270)"/>
<path d="M0 0 C13.05523006 10.1015581 21.45858033 22.53401638 24 39 C24.28739425 42.92144151 24.32517976 46.81927397 24.3125 50.75 C24.32861328 51.76449219 24.34472656 52.77898437 24.36132812 53.82421875 C24.36740378 63.07136226 24.36740378 63.07136226 21 67 C17.82877886 69.08394532 15.55134503 69.13608714 11.9375 68.4375 C9.07720889 67.79747446 7.93223594 66.93613858 5.76171875 64.890625 C3.548018 61.25838874 3.62905644 58.41026836 3.875 54.3125 C4.23851248 41.61841346 1.87038738 31.48316861 -6.8671875 21.89453125 C-14.04948398 15.51465251 -21.56854998 12.81862596 -31 13 C-30.443125 13.3403125 -29.88625 13.680625 -29.3125 14.03125 C-19.43102958 20.30731905 -12.6318831 27.7200311 -7 38 C-6.56300781 38.79535156 -6.12601562 39.59070313 -5.67578125 40.41015625 C0.05551494 53.09944712 -1.96672815 70.05991948 -6 83 C-1.44522871 81.96745651 1.79457329 80.20542671 5.125 76.875 C7 75 7 75 10 74 C10.34646885 77.18527818 10.30602757 78.58161448 8.3828125 81.2109375 C1.89707132 87.42737455 -4.79030456 93.13824456 -13 96.9375 C-16.38235423 98.51005748 -18.9639041 100.5330159 -21.8125 102.9375 C-26.85444845 107.0851579 -31.89908746 109.72508346 -38 112 C-38.85078125 112.3196875 -39.7015625 112.639375 -40.578125 112.96875 C-55.0725637 117.65557449 -71.23623351 115.64777553 -84.6875 108.875 C-98.03649871 101.17798989 -106.83798026 90.72812938 -111.56396484 75.98291016 C-114.45416528 65.1641529 -116.00276269 48.27652242 -111 38 C-107.84392486 35.63294364 -104.84903073 35.52869011 -101 36 C-97.49699281 38.22918639 -95.57742432 40.19353011 -94 44 C-93.74462891 45.99194336 -93.74462891 45.99194336 -93.7265625 48.08984375 C-93.70045898 49.25688843 -93.70045898 49.25688843 -93.67382812 50.44750977 C-93.65771484 51.26920654 -93.64160156 52.09090332 -93.625 52.9375 C-93.1341521 65.12418842 -91.3770527 74.87138767 -82.49609375 83.83984375 C-74.88537142 90.42627481 -67.16956603 94.17503556 -57 94 C-57.56847656 93.63648438 -58.13695312 93.27296875 -58.72265625 92.8984375 C-74.17991101 82.83444859 -83.41355838 70.15460072 -87.4921875 51.89453125 C-89.37357501 41.17062243 -86.39092404 32.17277213 -83 22 C-87.43416118 23.8903 -91.78241635 25.7955202 -95.9375 28.25 C-99 30 -99 30 -101 30 C-97.98259387 20.90038779 -89.14361769 16.11407675 -81 12 C-76.57551439 9.70582227 -72.45273285 7.56451825 -68.8125 4.125 C-50.13292967 -12.60878175 -20.64728756 -13.36801319 0 0 Z " fill="#F8B48F" transform="translate(212,135)"/>
<path d="M0 0 C7.72883882 -0.0700192 15.45760104 -0.1230714 23.18667889 -0.15543652 C26.77699303 -0.1709831 30.36708758 -0.19201523 33.95727539 -0.22631836 C37.43270283 -0.25931091 40.90792127 -0.27693536 44.38349342 -0.28463173 C46.33130929 -0.29273815 48.27904301 -0.3160909 50.22673035 -0.33988953 C67.11295472 -0.34302511 83.96637246 3.89973316 96.6875 15.4375 C97.450625 16.283125 98.21375 17.12875 99 18 C99.48082031 18.48855469 99.96164062 18.97710937 100.45703125 19.48046875 C110.21193613 29.87746863 112.5545555 43.44161448 112.3125 57.25390625 C110.98036009 73.22293343 105.00934801 88.08756882 93 99 C69.66853246 117.00843643 41.8212713 112 13 112 C13 76.36 13 40.72 13 4 C9.7 3.34 6.4 2.68 3 2 C2.01 1.34 1.02 0.68 0 0 Z " fill="#FDFCFC" transform="translate(363,132)"/>
<path d="M0 0 C13.53 0 27.06 0 41 0 C41 0.66 41 1.32 41 2 C42.299375 2.04125 43.59875 2.0825 44.9375 2.125 C52.09429162 2.93775867 56.9702548 6.62371293 61.5625 12 C64.53983847 18.21657246 64.16088397 26.34783849 62.1171875 32.77734375 C59.17135732 38.95188184 55.05287226 44.51051884 51 50 C51.90878906 50.11214844 52.81757812 50.22429687 53.75390625 50.33984375 C61.51048621 51.91729503 67.48645656 58.8067328 72 65 C76.46412528 71.92663687 76.95365224 78.91853463 76 87 C74.00333414 95.38835954 69.53671257 101.92542069 62.40625 106.7578125 C47.40625409 115.10458442 29.59776391 113.25610793 13 113 C12.05279933 87.52130951 11.91015453 62.05531079 11.9375 36.5625 C11.93835602 35.75883751 11.93921204 34.95517502 11.94009399 34.12715912 C11.95157684 24.08474997 11.97178479 14.04237649 12 4 C11.30132812 3.87882813 10.60265625 3.75765625 9.8828125 3.6328125 C8.97273438 3.46523437 8.06265625 3.29765625 7.125 3.125 C5.76761719 2.88136719 5.76761719 2.88136719 4.3828125 2.6328125 C2 2 2 2 0 0 Z " fill="#241F20" transform="translate(11,131)"/>
<path d="M0 0 C5.12572102 4.39347516 10.09742167 8.81288823 15 13.4375 C16.10106079 14.4737854 16.10106079 14.4737854 17.22436523 15.53100586 C22.8672541 20.86825088 28.39112416 26.31438305 33.82617188 31.86303711 C36.7361284 34.81664298 39.69354585 37.63798684 42.83984375 40.33984375 C48.51212263 45.23679971 53.68063767 50.63538305 58.93359375 55.97265625 C62.4365956 59.50972294 65.92241847 62.99590685 69.71875 66.21875 C76.09027874 71.84615859 81.98900566 77.98900566 88 84 C88.33 57.6 88.66 31.2 89 4 C84.545 3.01 84.545 3.01 80 2 C79.01 1.34 78.02 0.68 77 0 C83.6 0 90.2 0 97 0 C97 36.96 97 73.92 97 112 C87.81076353 104.12351159 78.90850078 96.00724701 70.09375 87.71875 C65.93684811 83.81095084 61.76268769 79.92370659 57.5625 76.0625 C51.11291682 70.12823932 44.73519268 64.11877934 38.359375 58.10546875 C35.45980774 55.37168392 32.55354328 52.64533525 29.640625 49.92578125 C16.82144671 37.95405466 16.82144671 37.95405466 11.3828125 32.3203125 C10.01546643 30.88514394 10.01546643 30.88514394 8 30 C8.00523682 31.20495117 8.01047363 32.40990234 8.01586914 33.65136719 C8.11923216 59.78800555 7.93131041 85.87872452 7 112 C4.69 112 2.38 112 0 112 C0 75.04 0 38.08 0 0 Z " fill="#282425" transform="translate(251,132)"/>
<path d="M0 0 C7.72883882 -0.0700192 15.45760104 -0.1230714 23.18667889 -0.15543652 C26.77699303 -0.1709831 30.36708758 -0.19201523 33.95727539 -0.22631836 C37.43270283 -0.25931091 40.90792127 -0.27693536 44.38349342 -0.28463173 C46.33130929 -0.29273815 48.27904301 -0.3160909 50.22673035 -0.33988953 C67.11295472 -0.34302511 83.96637246 3.89973316 96.6875 15.4375 C97.450625 16.283125 98.21375 17.12875 99 18 C99.48082031 18.48855469 99.96164062 18.97710937 100.45703125 19.48046875 C110.21193613 29.87746863 112.5545555 43.44161448 112.3125 57.25390625 C110.98036009 73.22293343 105.00934801 88.08756882 93 99 C69.66853246 117.00843643 41.8212713 112 13 112 C13 76.36 13 40.72 13 4 C9.7 3.34 6.4 2.68 3 2 C2.01 1.34 1.02 0.68 0 0 Z M25 4 C25 37.99 25 71.98 25 107 C55.87881633 108.3258499 55.87881633 108.3258499 83 97 C83.9075 96.4225 84.815 95.845 85.75 95.25 C95.60702292 85.39297708 98.784576 71.27101076 99.25 57.8125 C99.04513681 43.00089132 93.52003439 30.94953377 83.41796875 20.2890625 C66.6303223 4.39639559 47.2077921 4 25 4 Z " fill="#221E1F" transform="translate(363,132)"/>
<path d="M0 0 C10.84178254 1.84824764 20.13733661 9.5833845 26.5078125 18.20703125 C32.6016046 27.5164979 33.29190676 37.2772251 31.97265625 48.12890625 C30.25281578 55.88117808 26.90643504 63.92572684 20.74609375 69.14453125 C18.97265625 70.12890625 18.97265625 70.12890625 15.66015625 70.37890625 C3.74165966 66.33873791 -5.60488431 59.9685884 -11.7421875 48.75390625 C-16.61260962 38.80581 -19.19062899 29.33985705 -15.90234375 18.37890625 C-13.45700255 14.14031484 -10.93019493 10.0705228 -8.02734375 6.12890625 C-7.56328125 5.47664062 -7.09921875 4.824375 -6.62109375 4.15234375 C-4.72378398 1.8439502 -3.0773072 0.19566693 0 0 Z " fill="#FEFEFC" transform="translate(159.02734375,152.87109375)"/>
<path d="M0 0 C3.50300719 2.22918639 5.42257568 4.19353011 7 8 C7.25537109 9.99194336 7.25537109 9.99194336 7.2734375 12.08984375 C7.29954102 13.25688843 7.29954102 13.25688843 7.32617188 14.44750977 C7.34228516 15.26920654 7.35839844 16.09090332 7.375 16.9375 C7.8658479 29.12418842 9.6229473 38.87138767 18.50390625 47.83984375 C25.44044962 53.84283042 32.97842783 58.22302119 42.375 57.875 C46.67418601 58.02324779 49.67814735 59.29265672 53.5703125 61.02734375 C59.00113624 63.20141949 64.23516711 63.15307548 70 63.125 C71.19109375 63.13080078 71.19109375 63.13080078 72.40625 63.13671875 C76.4029478 63.13005759 80.09947535 62.99085908 84 62 C76.99204429 69.68614497 68.86696119 73.94263174 59 77 C57.33710938 77.53947266 57.33710938 77.53947266 55.640625 78.08984375 C41.14406368 81.71398408 25.78930407 78.33930922 13.07421875 71.0078125 C0.18444248 62.58933092 -8.3661663 50.76656588 -11.61328125 35.60253906 C-13.10923748 25.53505583 -14.5602981 11.36762517 -10 2 C-6.84392486 -0.36705636 -3.84903073 -0.47130989 0 0 Z " fill="#F8B48F" transform="translate(111,171)"/>
<path d="M0 0 C13.05523006 10.1015581 21.45858033 22.53401638 24 39 C24.28739425 42.92144151 24.32517976 46.81927397 24.3125 50.75 C24.32861328 51.76449219 24.34472656 52.77898437 24.36132812 53.82421875 C24.36740378 63.07136226 24.36740378 63.07136226 21 67 C17.82877886 69.08394532 15.55134503 69.13608714 11.9375 68.4375 C9.07720889 67.79747446 7.93223594 66.93613858 5.76171875 64.890625 C3.548018 61.25838874 3.62905644 58.41026836 3.875 54.3125 C4.23707346 41.66866493 1.92554811 31.36324524 -6.91796875 21.88671875 C-13.95680017 15.50819047 -21.5198619 13.39044704 -30.6628418 12.04833984 C-35.08165679 11.39315487 -38.99250092 10.42207853 -43.1875 8.8125 C-52.46607129 5.47323396 -62.39610878 6.67532535 -72 8 C-65.33744988 -1.32108594 -53.62645739 -5.8619809 -42.7890625 -8.375 C-27.9164857 -10.82820854 -12.77292664 -8.26978611 0 0 Z " fill="#E9552D" transform="translate(212,135)"/>
<path d="M0 0 C0.66 0.66 1.32 1.32 2 2 C1.56429687 2.38929688 1.12859375 2.77859375 0.6796875 3.1796875 C-7.0722215 10.46178384 -12.0300548 18.20439757 -12.375 28.9375 C-12.27960527 39.5620882 -7.95681381 49.95716775 -1 58 C9.19713261 67.53375037 20.14704778 71.52289455 34.078125 71.31640625 C45.11223206 70.42620439 56.37291154 66.21378757 64 58 C64.99 57.67 65.98 57.34 67 57 C67.34646885 60.18527818 67.30602757 61.58161448 65.3828125 64.2109375 C53.17941912 75.90761559 41.01553936 83.8126279 23.66967773 83.52368164 C8.46686558 82.82449761 -5.59172143 76.05879598 -16 65 C-25.14665516 53.91705696 -31.83315364 39.33091493 -31.359375 24.71484375 C-30.37308842 17.2640919 -28.47502956 9.14906263 -24 3 C-17.38945334 -1.36236525 -7.56380389 -0.71991706 0 0 Z " fill="#E9552D" transform="translate(155,152)"/>
<path d="M0 0 C11.87057142 -0.18152403 20.70811986 0.87290153 29.75 9.1875 C37.49473704 17.41853448 39.38874425 26.8151485 39.27734375 37.76953125 C38.75127373 43.8971356 36.64422596 47.3774086 32.328125 51.63671875 C28.88812442 54.40360736 25.77419763 54.88299254 21.375 55.3125 C20.08335938 55.45300781 18.79171875 55.59351563 17.4609375 55.73828125 C11.98164578 56.14851636 6.49073306 56.05694349 1 56 C0.85461251 50.75715692 0.71236463 45.51424032 0.57275391 40.27124023 C0.52506819 38.49582748 0.47659405 36.72043569 0.42724609 34.94506836 C0.10404373 23.29329319 -0.06839321 11.65629306 0 0 Z " fill="#FDFDFC" transform="translate(35,183)"/>
<path d="M0 0 C15 0 15 0 21 4 C27.31399871 10.67479864 29.3488093 18.71423437 29.21484375 27.66015625 C28.72535859 32.99109458 26.96324921 36.8391612 23.5625 40.9375 C16.52748532 46.59982888 9.39093648 43.55240803 0 43 C0 28.81 0 14.62 0 0 Z " fill="#FDFDFC" transform="translate(35,136)"/>
<path d="M0 0 C3.47180922 2.96373958 4.35276535 4.57953431 4.9375 9.0625 C4.35079691 13.95169244 2.0751766 16.85278535 -1.5625 20.0625 C-7.04227687 22.20676052 -12.41891383 21.9582329 -17.875 19.875 C-21.43989205 17.52738816 -23.07585046 16.27244861 -24.4375 12.1875 C-24.80041252 8.26804474 -24.83920179 5.92395328 -22.9375 2.4375 C-16.11145562 -3.70593995 -8.02290162 -4.23025722 0 0 Z " fill="#FDF4EF" transform="translate(350.4375,283.8125)"/>
<path d="M0 0 C2.07363946 0.96276118 3.96428035 1.85527701 5.8125 3.203125 C6.1425 4.193125 6.4725 5.183125 6.8125 6.203125 C5.8225 6.533125 4.8325 6.863125 3.8125 7.203125 C3.07 6.543125 2.3275 5.883125 1.5625 5.203125 C-1.10954028 2.83794873 -1.10954028 2.83794873 -4.8125 3.265625 C-8.17328791 4.1991772 -9.15298726 4.53282703 -11.1875 7.203125 C-11.66057456 9.37807581 -11.66057456 9.37807581 -11.5625 11.703125 C-11.57023438 12.4765625 -11.57796875 13.25 -11.5859375 14.046875 C-11.08536017 16.75588172 -10.42100092 17.61058461 -8.1875 19.203125 C-5.91588745 19.77636307 -5.91588745 19.77636307 -3.5 19.890625 C-2.69175781 19.95636719 -1.88351563 20.02210938 -1.05078125 20.08984375 C-0.43589844 20.12722656 0.17898437 20.16460937 0.8125 20.203125 C0.8125 17.893125 0.8125 15.583125 0.8125 13.203125 C-0.5075 13.203125 -1.8275 13.203125 -3.1875 13.203125 C-3.1875 12.543125 -3.1875 11.883125 -3.1875 11.203125 C0.1125 11.203125 3.4125 11.203125 6.8125 11.203125 C6.8125 14.503125 6.8125 17.803125 6.8125 21.203125 C0.15811218 23.42125427 -5.18128823 24.20519559 -11.9375 21.953125 C-17.30662226 19.06205917 -17.30662226 19.06205917 -19.1875 16.203125 C-20.00467437 11.71287822 -19.82058399 8.32319668 -17.5625 4.328125 C-12.31465239 -0.36731759 -6.9003192 -2.51368771 0 0 Z " fill="#FDF4EF" transform="translate(194.1875,281.796875)"/>
<path d="M0 0 C5.625 1.125 5.625 1.125 8.11328125 3.72265625 C8.63857422 4.26083984 9.16386719 4.79902344 9.70507812 5.35351562 C10.23552734 5.91748047 10.76597656 6.48144531 11.3125 7.0625 C12.13717773 7.91424805 12.13717773 7.91424805 12.97851562 8.78320312 C14.32827365 10.17990925 15.66541525 11.58878837 17 13 C17.33 8.71 17.66 4.42 18 0 C19.32 0 20.64 0 22 0 C22 7.59 22 15.18 22 23 C18.09568954 22.02392239 17.36519805 21.73615399 14.765625 19.05859375 C14.19199219 18.47529297 13.61835938 17.89199219 13.02734375 17.29101562 C12.44082031 16.67935547 11.85429687 16.06769531 11.25 15.4375 C10.64800781 14.82197266 10.04601562 14.20644531 9.42578125 13.57226562 C7.94365619 12.05485187 6.4709033 10.52829404 5 9 C4.67 13.62 4.34 18.24 4 23 C2.68 23 1.36 23 0 23 C0 15.41 0 7.82 0 0 Z " fill="#FDF5F1" transform="translate(393,282)"/>
<path d="M0 0 C3 0.25 3 0.25 5 2.25 C5.125 4.875 5.125 4.875 5 7.25 C4.01 7.58 3.02 7.91 2 8.25 C2 8.91 2 9.57 2 10.25 C4.475 11.24 4.475 11.24 7 12.25 C7.33 11.26 7.66 10.27 8 9.25 C7.67 8.59 7.34 7.93 7 7.25 C9.64 7.25 12.28 7.25 15 7.25 C14.175 7.9925 13.35 8.735 12.5 9.5 C9.55155147 12.12387385 9.55155147 12.12387385 10 16.25 C11.45833358 17.87514468 11.45833358 17.87514468 13 19.25 C13 19.91 13 20.57 13 21.25 C9.62537285 20.70276317 7.91765 20.1951 5 18.25 C4.46375 18.745 3.9275 19.24 3.375 19.75 C0.29889257 21.69280469 -1.41889189 21.77224493 -5 21.25 C-7.4375 19.5625 -7.4375 19.5625 -9 17.25 C-9 14.625 -9 14.625 -8 12.25 C-5.9375 10.9375 -5.9375 10.9375 -4 10.25 C-4.66 9.26 -5.32 8.27 -6 7.25 C-5.5601518 2.74155593 -4.87125629 0.40593802 0 0 Z " fill="#FEF7F3" transform="translate(263,283.75)"/>
<path d="M0 0 C5 0 5 0 6.76098633 1.19335938 C7.53865356 2.01030273 7.53865356 2.01030273 8.33203125 2.84375 C8.90244141 3.43027344 9.47285156 4.01679688 10.06054688 4.62109375 C10.63869141 5.24113281 11.21683594 5.86117188 11.8125 6.5 C12.40998047 7.12003906 13.00746094 7.74007813 13.62304688 8.37890625 C15.09357441 9.90825488 16.5483573 11.45271466 18 13 C18.33 8.71 18.66 4.42 19 0 C19.99 0 20.98 0 22 0 C22 7.59 22 15.18 22 23 C17.25513037 21.81378259 15.49105102 19.61055321 12.4375 16.0625 C8.58676559 11.64160057 8.58676559 11.64160057 4 8 C4 12.95 4 17.9 4 23 C2.68 23 1.36 23 0 23 C0 15.41 0 7.82 0 0 Z " fill="#FEF7F3" transform="translate(144,282)"/>
<path d="M0 0 C1.83886719 0.22485352 1.83886719 0.22485352 4 1 C5.37207031 2.91772461 5.37207031 2.91772461 6.578125 5.40234375 C7.23554687 6.73749023 7.23554687 6.73749023 7.90625 8.09960938 C8.3496875 9.03611328 8.793125 9.97261719 9.25 10.9375 C9.70890625 11.87013672 10.1678125 12.80277344 10.640625 13.76367188 C14 20.6773856 14 20.6773856 14 23 C11.1875 23.3125 11.1875 23.3125 8 23 C7.5875 22.195625 7.175 21.39125 6.75 20.5625 C5.27217073 17.7770093 5.27217073 17.7770093 2.59765625 17.4453125 C0.06005585 17.21041541 -2.45242028 17.05257669 -5 17 C-5.33 18.32 -5.66 19.64 -6 21 C-6.66 21 -7.32 21 -8 21 C-8 21.66 -8 22.32 -8 23 C-9.65 23 -11.3 23 -13 23 C-11.35 19.7 -9.7 16.4 -8 13 C-7.34 13 -6.68 13 -6 13 C-5.7525 12.154375 -5.505 11.30875 -5.25 10.4375 C-3.86026373 6.61572526 -2.08879162 3.48131937 0 0 Z " fill="#FEF5F1" transform="translate(78,281)"/>
<path d="M0 0 C0.99 0 1.98 0 3 0 C4.83654369 3.64422487 6.66869572 7.29063976 8.5 10.9375 C9.02464844 11.97841797 9.54929687 13.01933594 10.08984375 14.09179688 C10.58613281 15.08115234 11.08242188 16.07050781 11.59375 17.08984375 C12.05458984 18.00628662 12.51542969 18.92272949 12.99023438 19.86694336 C14 22 14 22 14 23 C11.69 23 9.38 23 7 23 C6.34 21.02 5.68 19.04 5 17 C1.7 17 -1.6 17 -5 17 C-5.226875 17.804375 -5.45375 18.60875 -5.6875 19.4375 C-6.120625 20.283125 -6.55375 21.12875 -7 22 C-9.58203125 22.66015625 -9.58203125 22.66015625 -12 23 C-10.75256064 20.4778714 -9.50212931 17.95729922 -8.25 15.4375 C-7.90195312 14.73302734 -7.55390625 14.02855469 -7.1953125 13.30273438 C-4.94162392 8.77448974 -2.54907588 4.3690242 0 0 Z " fill="#FEF7F3" transform="translate(372,281)"/>
<path d="M0 0 C3.18050641 2.69119774 3.91163066 4.30566943 4.4375 8.4375 C3.95032005 12.40453674 3.38170249 14.77317728 1 18 C-2.75939312 19.16199424 -4.8407318 19.61014116 -8.375 17.75 C-11.35827121 14.53724639 -11.214532 11.16327246 -11.16015625 6.9375 C-10.96295877 4.55189152 -10.39998095 2.94441799 -9 1 C-5.87139505 -0.56430248 -3.44397075 -0.35627284 0 0 Z " fill="#E9552E" transform="translate(344,284)"/>
<path d="M0 0 C2.5625 1.9375 2.5625 1.9375 4 4 C4 4.66 4 5.32 4 6 C2.68 6 1.36 6 0 6 C-0.66 5.01 -1.32 4.02 -2 3 C-5.58357241 2.74984127 -5.58357241 2.74984127 -9 3 C-8.91772448 4.91063072 -8.91772448 4.91063072 -8 7 C-5.50689317 8.76181892 -5.50689317 8.76181892 -2.5 10.1875 C2.97375328 12.97375328 2.97375328 12.97375328 4 14 C4.30133118 16.86264617 4.44642032 18.4047729 2.6875 20.75 C-1.05581511 23.52282601 -5.52247427 23.65333547 -10 23 C-13 21.125 -13 21.125 -15 19 C-15 18.34 -15 17.68 -15 17 C-10.125 17.875 -10.125 17.875 -9 19 C-7.00041636 19.04080783 -4.99954746 19.04254356 -3 19 C-3.16459618 17.07369454 -3.16459618 17.07369454 -4 15 C-6.00147822 13.50454011 -6.00147822 13.50454011 -8.4375 12.375 C-11.07828678 11.04400955 -12.89708262 10.10291738 -15 8 C-15.5 5.625 -15.5 5.625 -15 3 C-10.34409168 -1.53652606 -5.9797671 -1.80414226 0 0 Z " fill="#FEF6F1" transform="translate(225,282)"/>
<path d="M0 0 C2.34375 1.33984375 2.34375 1.33984375 4 3 C4 3.99 4 4.98 4 6 C2.68 6 1.36 6 0 6 C-0.66 5.01 -1.32 4.02 -2 3 C-5.08365871 2.7497843 -5.08365871 2.7497843 -8 3 C-7.83540382 4.92630546 -7.83540382 4.92630546 -7 7 C-4.99852178 8.49545989 -4.99852178 8.49545989 -2.5625 9.625 C0.07828678 10.95599045 1.89708262 11.89708262 4 14 C3.625 17.625 3.625 17.625 3 21 C-1.13410434 23.00441422 -4.42495281 23.40848636 -9 23 C-11.875 21.6875 -11.875 21.6875 -14 20 C-14.33 19.01 -14.66 18.02 -15 17 C-13.35 17 -11.7 17 -10 17 C-9.67 17.66 -9.34 18.32 -9 19 C-6.69 19 -4.38 19 -2 19 C-2.08017016 17.07830186 -2.08017016 17.07830186 -3 15 C-5.75098748 13.29804414 -8.59692771 12.01765845 -11.53125 10.66015625 C-14 9 -14 9 -14.921875 6.453125 C-15 4 -15 4 -13.75 1.6875 C-9.4723274 -0.93743546 -4.8926823 -0.79865843 0 0 Z " fill="#FEF6F2" transform="translate(438,282)"/>
<path d="M0 0 C3.375 1.875 3.375 1.875 6 4 C6 4.66 6 5.32 6 6 C5.01 6.33 4.02 6.66 3 7 C2.34 6.01 1.68 5.02 1 4 C-2.58357241 3.74984127 -2.58357241 3.74984127 -6 4 C-5.92234541 5.90838902 -5.92234541 5.90838902 -5 8 C-2.47413374 9.79662657 -2.47413374 9.79662657 0.5625 11.25 C2.08037109 12.03117187 2.08037109 12.03117187 3.62890625 12.828125 C4.41136719 13.21484375 5.19382812 13.6015625 6 14 C5.38896277 20.47699468 5.38896277 20.47699468 3.73046875 22.70703125 C0.53077831 25.09777061 -3.19040314 24.50038488 -7 24 C-10.0625 22.6875 -10.0625 22.6875 -12 21 C-12 20.01 -12 19.02 -12 18 C-7.125 18.875 -7.125 18.875 -6 20 C-4.00041636 20.04080783 -1.99954746 20.04254356 0 20 C-0.16459618 18.07369454 -0.16459618 18.07369454 -1 16 C-3.00147822 14.50454011 -3.00147822 14.50454011 -5.4375 13.375 C-8.07828678 12.04400955 -9.89708262 11.10291738 -12 9 C-12.37130746 6.10380178 -12.46583421 4.62111229 -10.6875 2.25 C-7.30212998 -0.2576815 -4.07144894 -0.39916166 0 0 Z " fill="#FEF9F6" transform="translate(54,281)"/>
<path d="M0 0 C2.31 0 4.62 0 7 0 C9.31 4.62 11.62 9.24 14 14 C16.64 9.38 19.28 4.76 22 0 C23.32 0.33 24.64 0.66 26 1 C24.44010634 4.49015064 22.84829983 7.96478956 21.25 11.4375 C20.8065625 12.43072266 20.363125 13.42394531 19.90625 14.44726562 C19.46796875 15.39150391 19.0296875 16.33574219 18.578125 17.30859375 C17.98112793 18.62041626 17.98112793 18.62041626 17.37207031 19.95874023 C16 22 16 22 13.83886719 22.79321289 C13.23204102 22.86145264 12.62521484 22.92969238 12 23 C10.55793859 20.48168311 9.12128792 17.96052215 7.6875 15.4375 C7.28337891 14.73302734 6.87925781 14.02855469 6.46289062 13.30273438 C4.00165085 8.96054712 1.87803838 4.62520133 0 0 Z " fill="#FEF7F4" transform="translate(96,282)"/>
<path d="M0 0 C1.98 0 3.96 0 6 0 C6 6.6 6 13.2 6 20 C10.29 20 14.58 20 19 20 C19 20.99 19 21.98 19 23 C12.73 23 6.46 23 0 23 C0 15.41 0 7.82 0 0 Z " fill="#FDEFE8" transform="translate(301,282)"/>
<path d="M0 0 C1.98 0 3.96 0 6 0 C6 7.59 6 15.18 6 23 C4.02 23 2.04 23 0 23 C0 15.41 0 7.82 0 0 Z " fill="#FDF5F1" transform="translate(129,282)"/>
<path d="M0 0 C4.39629018 0.23763731 6.77258856 2.14143559 10 5 C9 8 9 8 7 10 C7 10.33 7 10.66 7 11 C3.39991481 11.32728047 1.58388508 11.40422813 -1.4375 9.3125 C-3 7 -3 7 -2.875 4.375 C-2 2 -2 2 0 0 Z " fill="#FDEFE8" transform="translate(257,294)"/>
<path d="M0 0 C2.875 -0.125 2.875 -0.125 6 0 C8 2 8 2 8.125 4.625 C8.08375 5.40875 8.0425 6.1925 8 7 C5.6875 7.6875 5.6875 7.6875 3 8 C1.1875 6.875 1.1875 6.875 0 5 C-0.1875 2.3125 -0.1875 2.3125 0 0 Z " fill="#FDEFE8" transform="translate(260,284)"/>
<path d="M0 0 C2.31 1.65 4.62 3.3 7 5 C6.67 5.99 6.34 6.98 6 8 C3.125 8.125 3.125 8.125 0 8 C-0.66 7.34 -1.32 6.68 -2 6 C-1.44444444 1.44444444 -1.44444444 1.44444444 0 0 Z " fill="#E95B33" transform="translate(260,294)"/>
<path d="M0 0 C5.26371362 -0.50130606 7.9090934 0.68831371 12 4 C12 4.66 12 5.32 12 6 C11.01 6.33 10.02 6.66 9 7 C8.34 6.01 7.68 5.02 7 4 C5.02252878 3.63702064 5.02252878 3.63702064 2.875 3.8125 C1.59625 3.874375 0.3175 3.93625 -1 4 C-0.67 2.68 -0.34 1.36 0 0 Z " fill="#FAD8CA" transform="translate(48,281)"/>
<path d="M0 0 C5.46186436 0.96385842 10.15098052 1.83212684 14 6 C4.1122449 6.58163265 4.1122449 6.58163265 0 3 C0 2.01 0 1.02 0 0 Z " fill="#FCE4DA" transform="translate(42,299)"/>
<path d="M0 0 C3.81051702 0.67244418 7.40215196 1.56086078 11 3 C11.99 4.485 11.99 4.485 13 6 C5.78287462 6.48929664 5.78287462 6.48929664 2 4.125 C0 2 0 2 0 0 Z " fill="#FCECE4" transform="translate(210,299)"/>
<path d="M0 0 C0.8125 2.125 0.8125 2.125 1 4 C-0.32 4 -1.64 4 -3 4 C-3.66 3.01 -4.32 2.02 -5 1 C-7.56282742 0.27034634 -7.56282742 0.27034634 -10 0 C-10 -0.33 -10 -0.66 -10 -1 C-6.00762581 -2.14067834 -3.63193852 -2.11863081 0 0 Z " fill="#FCE3D7" transform="translate(441,284)"/>
<path d="M0 0 C2.23304926 0.93644001 3.42907644 1.92697056 4.9375 3.8125 C4.9375 4.4725 4.9375 5.1325 4.9375 5.8125 C3.6175 5.8125 2.2975 5.8125 0.9375 5.8125 C0.2775 4.8225 -0.3825 3.8325 -1.0625 2.8125 C-3.62532742 2.08284634 -3.62532742 2.08284634 -6.0625 1.8125 C-3.8753711 0.48460031 -2.58529544 -0.23502686 0 0 Z " fill="#FCE8DF" transform="translate(224.0625,282.1875)"/>
<path d="M0 0 C6.27 0 12.54 0 19 0 C19 0.33 19 0.66 19 1 C18.31292969 1.06058594 17.62585938 1.12117187 16.91796875 1.18359375 C15.56638672 1.30927734 15.56638672 1.30927734 14.1875 1.4375 C12.84751953 1.55931641 12.84751953 1.55931641 11.48046875 1.68359375 C8.87256441 1.93489767 8.87256441 1.93489767 6 3 C2.8125 2.0625 2.8125 2.0625 0 1 C0 0.67 0 0.34 0 0 Z " fill="#312B2B" transform="translate(328,132)"/>
<path d="M0 0 C0.99 0.33 1.98 0.66 3 1 C3 2.65 3 4.3 3 6 C2.01 6.495 2.01 6.495 1 7 C0.01 6.01 -0.98 5.02 -2 4 C-1.34 2.68 -0.68 1.36 0 0 Z " fill="#E95931" transform="translate(262,285)"/>
<path d="M0 0 C2.2477975 2.05233685 3.0022242 3.00667261 4 6 C1.69 6 -0.62 6 -3 6 C-2.01 4.02 -1.02 2.04 0 0 Z " fill="#E8552B" transform="translate(78,290)"/>
<path d="M0 0 C0.66 0 1.32 0 2 0 C2.66 1.98 3.32 3.96 4 6 C2.02 6 0.04 6 -2 6 C-1.34 4.02 -0.68 2.04 0 0 Z " fill="#E8542B" transform="translate(371,290)"/>
<path d="M0 0 C1.75 1.4375 1.75 1.4375 3 3 C2.01 3.99 1.02 4.98 0 6 C-2 4.625 -2 4.625 -4 3 C-4 2.34 -4 1.68 -4 1 C-2.1875 0.3125 -2.1875 0.3125 0 0 Z " fill="#EA5F37" transform="translate(269,291)"/>
<path d="M0 0 C2.64 0 5.28 0 8 0 C6.35 1.65 4.7 3.3 3 5 C1 3 1 3 0 0 Z " fill="#FCEBE2" transform="translate(270,291)"/>
<path d="M0 0 C2.4375 0.8125 2.4375 0.8125 5 2 C5.33 2.99 5.66 3.98 6 5 C5.01 5.33 4.02 5.66 3 6 C0 2.25 0 2.25 0 0 Z " fill="#FEF5EF" transform="translate(54,282)"/>
</svg>
