<?xml version="1.0" encoding="UTF-8"?>
<svg version="1.1" xmlns="http://www.w3.org/2000/svg" width="742" height="336">
<path d="M0 0 C9.93592064 -0.06783504 19.87168693 -0.1228503 29.80778694 -0.15543652 C34.42175032 -0.17107796 39.03554675 -0.19228842 43.64941406 -0.22631836 C48.10386669 -0.25896611 52.55815895 -0.27686446 57.01272202 -0.28463173 C58.71035155 -0.29016552 60.40797252 -0.30097173 62.1055336 -0.31719017 C64.4873766 -0.33903674 66.86856086 -0.34196395 69.25048828 -0.34057617 C69.94892349 -0.351362 70.6473587 -0.36214783 71.36695862 -0.3732605 C78.2141972 -0.33022387 82.54752661 2.17697629 87.33984375 6.9296875 C87.80519531 7.40664062 88.27054687 7.88359375 88.75 8.375 C89.23082031 8.84421875 89.71164062 9.3134375 90.20703125 9.796875 C96.47399156 16.11620545 96.33898505 21.98876952 96.3125 30.4375 C96.32861328 31.46166016 96.34472656 32.48582031 96.36132812 33.54101562 C96.36495836 39.14973251 96.11423072 43.14086111 93 48 C92.4121875 49.175625 92.4121875 49.175625 91.8125 50.375 C91.544375 50.91125 91.27625 51.4475 91 52 C91.639375 52.763125 92.27875 53.52625 92.9375 54.3125 C96.2704149 58.65538911 96.17258185 62.48272348 96.203125 67.73828125 C96.20882507 68.49666794 96.21452515 69.25505463 96.22039795 70.03642273 C96.22983856 71.64104827 96.23637821 73.24569312 96.24023438 74.8503418 C96.24992327 77.29315455 96.2809474 79.73511961 96.3125 82.17773438 C96.31903227 83.73957836 96.32428186 85.30142834 96.328125 86.86328125 C96.3404718 87.58848465 96.3528186 88.31368805 96.36553955 89.06086731 C96.34144091 94.60626276 95.04465955 98.43860114 91.58959961 102.7668457 C91.11530518 103.23179443 90.64101074 103.69674316 90.15234375 104.17578125 C89.62962891 104.69333984 89.10691406 105.21089844 88.56835938 105.74414062 C88.03017578 106.26169922 87.49199219 106.77925781 86.9375 107.3125 C86.39544922 107.84939453 85.85339844 108.38628906 85.29492188 108.93945312 C80.84921813 113.29723195 79.03384274 114.11438466 72.78125 114.08789062 C71.9871875 114.07951172 71.193125 114.07113281 70.375 114.0625 C69.17230469 114.05573242 69.17230469 114.05573242 67.9453125 114.04882812 C65.96350994 114.03703168 63.98174567 114.01909605 62 114 C62.04421042 118.1999896 62.11409883 122.3985401 62.20751953 126.59765625 C62.23569611 128.02526937 62.25692727 129.45303753 62.27099609 130.88085938 C62.29247392 132.93700332 62.33913974 134.99129002 62.390625 137.046875 C62.41157227 138.28276367 62.43251953 139.51865234 62.45410156 140.79199219 C62.79147352 144.00572356 62.79147352 144.00572356 64.50292969 146.40136719 C68.07894042 148.69074129 71.44951673 148.57298194 75.5625 148.53125 C76.39080322 148.5350769 77.21910645 148.53890381 78.07250977 148.54284668 C79.82081317 148.54556425 81.56915734 148.53821381 83.31738281 148.52148438 C85.99115777 148.50007082 88.66224596 148.52128944 91.3359375 148.546875 C93.03646425 148.54423169 94.73698934 148.53910665 96.4375 148.53125 C97.23551025 148.53934692 98.03352051 148.54744385 98.85571289 148.55578613 C102.24735507 148.49858255 104.46512559 148.40756067 107.20831299 146.31732178 C109.4160969 143.461831 109.5136449 141.98541655 109.54589844 138.40527344 C109.56561707 137.28441345 109.58533569 136.16355347 109.60565186 135.00872803 C109.60688049 133.80444153 109.60810913 132.60015503 109.609375 131.359375 C109.62591125 130.12205627 109.64244751 128.88473755 109.65948486 127.60992432 C109.69982385 124.32848469 109.72314761 121.0475037 109.73822021 117.76586914 C109.75780671 114.41404159 109.80010897 111.06258686 109.83984375 107.7109375 C109.91384629 101.14069517 109.9654191 94.57056166 110 88 C107.36 88 104.72 88 102 88 C102 81.4 102 74.8 102 68 C113.55 68 125.1 68 137 68 C137 74.6 137 81.2 137 88 C133.37 88.33 129.74 88.66 126 89 C127.32 89.66 128.64 90.32 130 91 C130.05080046 98.8470584 130.0857759 106.69407422 130.10986328 114.54125977 C130.11877541 117.20963257 130.13354451 119.87779002 130.15087891 122.54614258 C130.17519702 126.38625805 130.18649932 130.2262277 130.1953125 134.06640625 C130.20563507 135.25520889 130.21595764 136.44401154 130.22659302 137.6688385 C130.22857577 152.37764435 130.22857577 152.37764435 125.20703125 157.45703125 C124.65853516 158.01197266 124.11003906 158.56691406 123.54492188 159.13867188 C122.68737305 159.9672168 122.68737305 159.9672168 121.8125 160.8125 C121.26013672 161.38419922 120.70777344 161.95589844 120.13867188 162.54492188 C119.58373047 163.09341797 119.02878906 163.64191406 118.45703125 164.20703125 C117.96178955 164.6966333 117.46654785 165.18623535 116.95629883 165.69067383 C111.19523545 169.546481 104.606502 169.29547955 97.9375 169.265625 C96.98738037 169.26753845 96.03726074 169.2694519 95.05834961 169.27142334 C93.05810276 169.27277874 91.05784692 169.26912754 89.05761719 169.26074219 C86.00956313 169.2500336 82.9620984 169.26065954 79.9140625 169.2734375 C77.96354038 169.27211579 76.01301862 169.26955316 74.0625 169.265625 C73.15814209 169.26967346 72.25378418 169.27372192 71.32202148 169.27789307 C65.53407809 169.23535465 59.94782289 169.05194455 55.02783203 165.62719727 C54.52622559 165.11213623 54.02461914 164.5970752 53.5078125 164.06640625 C52.94835937 163.49986328 52.38890625 162.93332031 51.8125 162.34960938 C50.9771875 161.46499023 50.9771875 161.46499023 50.125 160.5625 C49.25488281 159.68368164 49.25488281 159.68368164 48.3671875 158.78710938 C43.30970765 153.58192276 42.85516426 149.83917379 42.90234375 142.61328125 C42.90335083 141.88894897 42.90435791 141.1646167 42.90539551 140.41833496 C42.91062174 137.71637384 42.92458302 135.0144353 42.9375 132.3125 C42.9684375 123.2478125 42.9684375 123.2478125 43 114 C28.81 114 14.62 114 0 114 C0 107.73 0 101.46 0 95 C2.97 95 5.94 95 9 95 C9 70.25 9 45.5 9 20 C6.03 20 3.06 20 0 20 C0 13.4 0 6.8 0 0 Z M22 20 C24.77260299 21.93798263 24.77260299 21.93798263 27 23 C27.33 28.94 27.66 34.88 28 41 C34.19298642 41.09888089 40.38551332 41.17147486 46.57910156 41.21972656 C48.68595382 41.23984126 50.79275025 41.26713667 52.89941406 41.30175781 C55.92787447 41.35028168 58.95559678 41.37297016 61.984375 41.390625 C62.92617615 41.41127014 63.86797729 41.43191528 64.83831787 41.45318604 C70.0564041 41.5042812 70.0564041 41.5042812 74.59277344 39.16894531 C76.52563338 36.18984613 76.53237816 34.0292189 76.5 30.5 C76.5103125 29.3759375 76.520625 28.251875 76.53125 27.09375 C75.88522228 23.33158858 74.93714743 22.36179993 72 20 C69.58998928 19.42688127 69.58998928 19.42688127 66.95605469 19.54589844 C65.45495148 19.54635162 65.45495148 19.54635162 63.92352295 19.54681396 C62.31395721 19.57778168 62.31395721 19.57778168 60.671875 19.609375 C59.01566132 19.61786469 59.01566132 19.61786469 57.32598877 19.62652588 C53.80021774 19.64891232 50.27546376 19.69911504 46.75 19.75 C44.35938968 19.77006197 41.96876342 19.78831326 39.578125 19.8046875 C33.71840313 19.84878457 27.85927422 19.91572002 22 20 Z M28 61 C28 72.22 28 83.44 28 95 C33.8728147 95.1150029 39.74170106 95.2144737 45.61474609 95.2746582 C47.61097473 95.29975272 49.60711193 95.33383626 51.60302734 95.37719727 C54.47776888 95.43807246 57.35129248 95.46626024 60.2265625 95.48828125 C61.55815903 95.52699089 61.55815903 95.52699089 62.91665649 95.56648254 C67.11415816 95.56836876 70.13099603 95.3793446 73.56323242 92.81713867 C76.27030722 89.68749875 76.75999093 88.50133205 76.76171875 84.4375 C76.76494141 83.39335938 76.76816406 82.34921875 76.77148438 81.2734375 C76.74376953 80.19320312 76.71605469 79.11296875 76.6875 78 C76.70232422 76.91976562 76.71714844 75.83953125 76.73242188 74.7265625 C76.74304363 68.59214054 76.74304363 68.59214054 74.07470703 63.18286133 C69.72882221 60.09753846 66.30781589 60.36495556 61.10546875 60.51171875 C60.15811356 60.51879349 59.21075836 60.52586823 58.23469543 60.53315735 C55.21814979 60.56107666 52.2034816 60.62381085 49.1875 60.6875 C47.13869874 60.71258604 45.0898683 60.73539867 43.04101562 60.75585938 C38.02604414 60.80663875 33.01511534 60.90449421 28 61 Z " fill="#154734" transform="translate(304,0)"/>
<path d="M0 0 C4.9255044 -0.07491408 9.85066732 -0.12895771 14.77661133 -0.16479492 C16.44756864 -0.17975584 18.11848755 -0.20013204 19.78930664 -0.22631836 C42.59563813 -0.57445452 42.59563813 -0.57445452 50.5 5.25 C55.65056287 10.91561916 56.57056439 15.93059192 56.35546875 23.41796875 C55.8485773 27.09989453 54.39571342 29.20500101 52 32 C51.2575 32.94875 50.515 33.8975 49.75 34.875 C49.1725 35.57625 48.595 36.2775 48 37 C48.66386719 37.268125 49.32773437 37.53625 50.01171875 37.8125 C55.29189374 40.15581854 59.45436522 42.28119357 62.21875 47.50390625 C64.49032181 54.76157818 64.08007735 62.56458773 61 69.5 C57.46701763 75.60242409 51.82331302 80.07547582 45 82 C39.8885925 82.87160184 34.90377657 83.14729296 29.73046875 83.1328125 C28.96825516 83.13376923 28.20604156 83.13472595 27.42073059 83.13571167 C25.82321082 83.13638773 24.22568821 83.1345738 22.62817383 83.13037109 C20.17718426 83.1249773 17.72637484 83.13035446 15.27539062 83.13671875 C13.7187496 83.13605859 12.16210868 83.13477873 10.60546875 83.1328125 C9.87216843 83.13483673 9.1388681 83.13686096 8.38334656 83.13894653 C3.22997358 83.11498679 3.22997358 83.11498679 1 82 C1 81.01 1 80.02 1 79 C1.969375 78.54625 2.93875 78.0925 3.9375 77.625 C7.07079582 76.34213779 7.07079582 76.34213779 8 74 C8.09175034 71.87583 8.11750694 69.74870545 8.11352539 67.62255859 C8.11367142 66.96877731 8.11381744 66.31499603 8.1139679 65.6414032 C8.11327036 63.47704773 8.1054854 61.31277796 8.09765625 59.1484375 C8.09579151 57.64913988 8.09436787 56.14984166 8.09336853 54.65054321 C8.08954779 50.70168378 8.07972128 46.75286104 8.06866455 42.80401611 C8.05844091 38.77559913 8.05386887 34.74717622 8.04882812 30.71875 C8.03809862 22.81248315 8.0210275 14.90624614 8 7 C6.6078125 6.566875 6.6078125 6.566875 5.1875 6.125 C2 5 2 5 -1 3 C-0.67 2.01 -0.34 1.02 0 0 Z M20 6 C18.49272887 11.45000976 18.81595526 17.07961407 18.8125 22.6875 C18.80025391 23.74517578 18.78800781 24.80285156 18.77539062 25.89257812 C18.77345703 26.90126953 18.77152344 27.90996094 18.76953125 28.94921875 C18.76542236 29.87049561 18.76131348 30.79177246 18.75708008 31.7409668 C18.7826364 34.20093801 18.7826364 34.20093801 21 36 C29.87007346 36.97990769 37.91096266 36.10307155 45.5625 31.4375 C47.92290953 27.43506646 47.6886459 23.51445643 47 19 C45.0403472 13.45638326 41.40982662 9.70124683 36.18359375 7.09375 C31.13178107 4.95834581 25.16336093 3.41831953 20 6 Z M20 41 C19.90113165 45.78712933 19.82853377 50.57366475 19.78027344 55.36157227 C19.76015619 56.99025829 19.73285863 58.61887208 19.69824219 60.24731445 C19.64972571 62.58823458 19.62703368 64.92820018 19.609375 67.26953125 C19.57840729 68.36186821 19.57840729 68.36186821 19.54681396 69.47627258 C19.54538132 72.7030512 19.5571526 74.51156178 21.77148438 76.95385742 C25.41929361 78.66626568 28.77495424 78.53110238 32.75 78.5 C33.96345093 78.49359497 33.96345093 78.49359497 35.20141602 78.48706055 C41.20850905 78.31497761 45.70054124 77.49943359 50 73 C53.75102321 68.76497379 54.11425958 63.48445988 54 58 C53.07772399 51.87765714 50.77283111 48.08686182 46.01171875 44.19140625 C41.40129464 41.4609609 36.7176142 40.69276796 31.4375 40.3125 C30.34308594 40.22613281 29.24867187 40.13976562 28.12109375 40.05078125 C25.20689024 40.00336617 22.8299394 40.38221533 20 41 Z " fill="#154734" transform="translate(1,231)"/>
<path d="M0 0 C1.07636719 0.00322266 2.15273438 0.00644531 3.26171875 0.00976562 C4.38964844 0.01814453 5.51757812 0.02652344 6.6796875 0.03515625 C7.81535156 0.03966797 8.95101563 0.04417969 10.12109375 0.04882812 C12.93234388 0.0606401 15.7434898 0.07711118 18.5546875 0.09765625 C18.8846875 1.41765625 19.2146875 2.73765625 19.5546875 4.09765625 C17.5746875 5.08765625 15.5946875 6.07765625 13.5546875 7.09765625 C13.45283863 14.33833736 13.38303394 21.57883208 13.33496094 28.82006836 C13.31490938 31.28075057 13.28766103 33.7413855 13.25292969 36.2019043 C13.2041287 39.74930523 13.18165322 43.29607332 13.1640625 46.84375 C13.14341736 47.93473495 13.12277222 49.02571991 13.10150146 50.14976501 C13.09906431 58.54239296 14.57628981 65.36067984 20.6171875 71.47265625 C27.98362484 77.08741422 36.5964697 77.65873316 45.53125 76.671875 C51.05298361 75.62317365 54.90054622 73.75179753 58.8671875 69.78515625 C64.24331514 61.22317519 64.70891323 52.78896231 64.72265625 42.99609375 C64.72598465 42.15599762 64.72931305 41.31590149 64.73274231 40.4503479 C64.73777215 38.68728172 64.74015187 36.92420616 64.73999023 35.16113281 C64.7421871 32.47314861 64.76041282 29.78556864 64.77929688 27.09765625 C64.78222962 25.37630347 64.78421521 23.65494877 64.78515625 21.93359375 C64.79593452 20.73807388 64.79593452 20.73807388 64.80693054 19.5184021 C64.78854774 15.01007294 64.39725194 11.30040962 62.5546875 7.09765625 C60.65997744 5.75913488 60.65997744 5.75913488 58.4296875 5.22265625 C57.70523438 4.99835938 56.98078125 4.7740625 56.234375 4.54296875 C55.68007813 4.39601562 55.12578125 4.2490625 54.5546875 4.09765625 C54.8846875 2.77765625 55.2146875 1.45765625 55.5546875 0.09765625 C62.4846875 0.09765625 69.4146875 0.09765625 76.5546875 0.09765625 C77.0496875 2.07765625 77.0496875 2.07765625 77.5546875 4.09765625 C76.7503125 4.65453125 75.9459375 5.21140625 75.1171875 5.78515625 C71.76657813 8.8088769 71.66767026 11.07015079 71.42338562 15.4539032 C71.41990616 16.26535294 71.4164267 17.07680267 71.4128418 17.9128418 C71.40580734 18.84118332 71.39877289 19.76952484 71.39152527 20.72599792 C71.38527885 22.21514458 71.38527885 22.21514458 71.37890625 23.734375 C71.3557015 25.86003587 71.3315839 27.98568694 71.30664062 30.11132812 C71.27161322 33.44432082 71.24222063 36.77695349 71.22875977 40.11010742 C71.21318445 43.33946837 71.17291097 46.56779195 71.12890625 49.796875 C71.13081467 50.77951828 71.13272308 51.76216156 71.13468933 52.77458191 C70.97631128 61.84168886 68.53385958 69.88339492 62.265625 76.62890625 C52.39670993 85.10085161 38.72763199 83.92223792 26.5546875 83.09765625 C18.06902974 81.5748247 11.36902528 77.2669379 6.24609375 70.32421875 C-0.62973575 58.38596533 1.13473936 41.55265238 0.9296875 28.28515625 C0.89142386 26.22459439 0.85236755 24.16404708 0.8125 22.10351562 C0.71742659 17.1016834 0.63306967 12.09977673 0.5546875 7.09765625 C-1.146875 6.44796875 -1.146875 6.44796875 -2.8828125 5.78515625 C-4.0584375 5.22828125 -5.2340625 4.67140625 -6.4453125 4.09765625 C-6.7753125 3.10765625 -7.1053125 2.11765625 -7.4453125 1.09765625 C-4.83580014 -0.20709993 -2.91829965 -0.01535947 0 0 Z " fill="#154734" transform="translate(295.4453125,230.90234375)"/>
<path d="M0 0 C1.67542976 0.28604898 3.34385343 0.61781233 5 1 C5.33 2.98 5.66 4.96 6 7 C6.721875 6.38125 7.44375 5.7625 8.1875 5.125 C14.14796432 0.62153807 19.73632149 0.32605045 27 1 C32.19973734 2.73324578 34.86183594 5.55426758 38 10 C39.73405931 14.31396431 40.26703681 18.00741299 40.34375 22.640625 C40.37339844 23.87554687 40.40304687 25.11046875 40.43359375 26.3828125 C40.47813281 28.97655791 40.52240043 31.57030799 40.56640625 34.1640625 C40.59605469 35.39382813 40.62570312 36.62359375 40.65625 37.890625 C40.68428711 39.57720215 40.68428711 39.57720215 40.71289062 41.29785156 C40.72956365 44.14852208 40.72956365 44.14852208 43 46 C44.98356483 46.71408334 46.98315437 47.38617742 49 48 C48.67 49.32 48.34 50.64 48 52 C41.07 52 34.14 52 27 52 C26.505 50.02 26.505 50.02 26 48 C27.98 47.505 27.98 47.505 30 47 C30.07455949 42.97990543 30.12879358 38.96008267 30.16479492 34.93945312 C30.17981428 33.57382184 30.20023608 32.20823824 30.22631836 30.84277344 C30.26300137 28.87196095 30.27818551 26.90078592 30.29296875 24.9296875 C30.31653442 23.15440674 30.31653442 23.15440674 30.34057617 21.34326172 C29.88720351 16.89273469 28.34384356 13.62381097 25.5 10.1875 C22.01238343 7.42647022 18.23977305 7.71255776 14 8 C10.01933905 9.57724302 8.39332726 10.41000911 6 14 C5.82887998 16.47056823 5.76746876 18.82503921 5.8046875 21.29296875 C5.80893234 22.35201164 5.80893234 22.35201164 5.81326294 23.43244934 C5.82444536 25.68430633 5.8495458 27.93576352 5.875 30.1875 C5.88503233 31.71548904 5.89415774 33.24348433 5.90234375 34.77148438 C5.92437828 38.51447663 5.95889433 42.25717056 6 46 C8.97 46.66 11.94 47.32 15 48 C14.67 49.32 14.34 50.64 14 52 C6.08 52 -1.84 52 -10 52 C-10.33 50.68 -10.66 49.36 -11 48 C-9.35 47.34 -7.7 46.68 -6 46 C-6 34.45 -6 22.9 -6 11 C-8.31 10.34 -10.62 9.68 -13 9 C-13 8.01 -13 7.02 -13 6 C-12.14535156 5.65066406 -11.29070312 5.30132812 -10.41015625 4.94140625 C-9.30542969 4.48636719 -8.20070313 4.03132813 -7.0625 3.5625 C-5.96035156 3.11003906 -4.85820312 2.65757812 -3.72265625 2.19140625 C-1.13431084 1.25575392 -1.13431084 1.25575392 0 0 Z " fill="#154734" transform="translate(385,262)"/>
<path d="M0 0 C3.84048484 4.59908847 4.59963263 8.41713135 4.609375 14.2421875 C4.62591125 15.01055939 4.64244751 15.77893127 4.65948486 16.57058716 C4.70775935 19.00547439 4.72928871 21.43973811 4.75 23.875 C4.77817708 25.53388519 4.80810694 27.19274159 4.83984375 28.8515625 C4.91351198 32.90099027 4.96321134 36.95007609 5 41 C7.31 41.66 9.62 42.32 12 43 C11.67 44.32 11.34 45.64 11 47 C5.02305081 48.13355933 2.41904699 48.07900397 -3 45 C-6.94940684 44.69162266 -6.94940684 44.69162266 -9.875 46.5 C-15.7170035 49.18553973 -24.28382307 49.34388062 -30.30078125 47.16796875 C-32 46 -32 46 -34 43 C-34.73555937 37.56460337 -35.09877673 32.64816509 -32 28 C-24.19056042 22.79370694 -15.52951616 19 -6 19 C-6.08743331 17.08249714 -6.1956189 15.16593335 -6.3125 13.25 C-6.37050781 12.18265625 -6.42851563 11.1153125 -6.48828125 10.015625 C-7.03912817 6.7694126 -7.70984188 5.32823676 -10 3 C-12.78601223 2.07132926 -14.61066089 1.83657783 -17.5 1.8125 C-18.2734375 1.79832031 -19.046875 1.78414063 -19.84375 1.76953125 C-22.29680056 1.86338472 -22.29680056 1.86338472 -25 4 C-25.58189266 6.42521494 -25.58189266 6.42521494 -25.6875 9.125 C-25.75324219 10.03507812 -25.81898437 10.94515625 -25.88671875 11.8828125 C-25.92410156 12.58148438 -25.96148437 13.28015625 -26 14 C-27.828125 14.58984375 -27.828125 14.58984375 -30 15 C-32.75 13.5625 -32.75 13.5625 -35 12 C-34.62608452 6.76518322 -32.88252171 3.45452719 -29 0 C-20.75215242 -5.26458356 -8.40375984 -4.66875547 0 0 Z M-22.828125 28.390625 C-25.03561883 30.80110677 -25.97495642 32.87728644 -26.625 36.0625 C-25.76049116 40.12569154 -24.34729173 41.57855492 -21 44 C-15.07228452 44.98795258 -11.76724812 43.24172872 -7 40 C-5.46733418 36.93466836 -5.89723529 33.73245728 -5.9375 30.375 C-5.94201172 29.66859375 -5.94652344 28.9621875 -5.95117188 28.234375 C-5.96296125 26.48954725 -5.98089676 24.744763 -6 23 C-11.97425303 23 -18.00726932 24.72347837 -22.828125 28.390625 Z " fill="#154734" transform="translate(104,266)"/>
<path d="M0 0 C7.26 0 14.52 0 22 0 C22 1.32 22 2.64 22 4 C20.02 4.33 18.04 4.66 16 5 C19.45025372 15.92315349 23.52338452 26.4599572 28 37 C29.54081195 32.77784468 31.05409938 28.54633177 32.5625 24.3125 C33.21895508 22.51522461 33.21895508 22.51522461 33.88867188 20.68164062 C34.29794922 19.52470703 34.70722656 18.36777344 35.12890625 17.17578125 C35.51119385 16.11270752 35.89348145 15.04963379 36.28735352 13.9543457 C37.04935827 10.79538045 37.10500533 9.04468851 36 6 C33.03292954 4.14083176 33.03292954 4.14083176 30 3 C30.33 2.01 30.66 1.02 31 0 C36.94 0 42.88 0 49 0 C49 1.32 49 2.64 49 4 C48.40469482 4.16435547 47.80938965 4.32871094 47.19604492 4.49804688 C43.80046099 6.82040734 43.09769391 10.27503367 41.86328125 14.03125 C41.58216995 14.84698486 41.30105865 15.66271973 41.01142883 16.50317383 C40.097926 19.16427535 39.20519779 21.83185527 38.3125 24.5 C37.69134599 26.32144314 37.06878253 28.14240623 36.44482422 29.96289062 C35.20111072 33.59780006 33.9650459 37.23515956 32.73583984 40.875 C30.40713155 47.76452923 28.01484434 54.63148356 25.625 61.5 C24.41475015 64.99934207 23.20724761 68.4996207 22 72 C18.7 72 15.4 72 12 72 C13.61889492 67.57917156 15.8671776 64.1086078 18.5625 60.28125 C21.85005817 55.06403812 22.20406558 52.09346318 21 46 C19.95009975 42.88667771 18.68794258 39.87792794 17.40234375 36.85546875 C17.04862198 36.00447098 16.69490021 35.15347321 16.33045959 34.27668762 C15.20708903 31.57703624 14.07298371 28.8820763 12.9375 26.1875 C11.80007294 23.47443511 10.66498544 20.76043933 9.53382874 18.04475403 C8.8311744 16.35922413 8.12461109 14.67531749 7.4138031 12.99320984 C5 7.22281182 5 7.22281182 5 5 C2.525 4.01 2.525 4.01 0 3 C0 2.01 0 1.02 0 0 Z " fill="#154734" transform="translate(693,264)"/>
<path d="M0 0 C6.93 0 13.86 0 21 0 C21 1.32 21 2.64 21 4 C19.35 4.66 17.7 5.32 16 6 C17.9826089 13.06512428 20.407044 19.83726835 23.1875 26.625 C23.55552734 27.53378906 23.92355469 28.44257813 24.30273438 29.37890625 C25.19783479 31.58759559 26.0969535 33.79455048 27 36 C29.67068052 31.99397923 31.02693063 27.77136699 32.625 23.25 C32.94984375 22.36828125 33.2746875 21.4865625 33.609375 20.578125 C35.41072436 15.49196209 36.39806761 11.39602763 36 6 C34.02 5.01 32.04 4.02 30 3 C30 2.01 30 1.02 30 0 C35.94 0 41.88 0 48 0 C48 1.32 48 2.64 48 4 C46.67973117 5.01718632 45.34486524 6.01556347 44 7 C42.79287955 9.26801095 42.79287955 9.26801095 41.97290039 11.90771484 C41.62896744 12.90660736 41.28503448 13.90549988 40.93067932 14.93466187 C40.57328171 16.01583282 40.21588409 17.09700378 39.84765625 18.2109375 C39.4656456 19.33005524 39.08363495 20.44917297 38.69004822 21.60220337 C37.46834057 25.18902791 36.26485588 28.78164743 35.0625 32.375 C33.86006296 35.93131328 32.65386675 39.48632177 31.44566345 43.04067993 C30.695693 45.2509998 29.94961907 47.46264732 29.20826721 49.6758728 C26.67408673 57.19925902 23.90030601 64.61031291 21 72 C18.03 72 15.06 72 12 72 C12.99780194 68.00879224 14.2647411 65.77369283 16.5 62.375 C19.99055289 57.03903185 21.46827201 54.52584197 21 48 C20.04181469 44.63536894 18.74817328 41.4338691 17.421875 38.19921875 C17.05402893 37.28163284 16.68618286 36.36404694 16.30718994 35.4186554 C15.52967756 33.48914383 14.74600396 31.56210484 13.95654297 29.63745117 C12.74978155 26.68696589 11.57113641 23.726292 10.39453125 20.76367188 C9.63447752 18.88734552 8.87281395 17.01167028 8.109375 15.13671875 C7.75816589 14.25030197 7.40695679 13.36388519 7.04510498 12.4506073 C6.70505432 11.63248062 6.36500366 10.81435394 6.01464844 9.97143555 C5.72152771 9.25086472 5.42840698 8.53029388 5.12640381 7.78788757 C3.73596539 5.58091034 2.38730818 4.95766395 0 4 C0 2.68 0 1.36 0 0 Z " fill="#154734" transform="translate(111,264)"/>
<path d="M0 0 C6.15006819 3.93243354 9.80726274 9.51584605 11.40234375 16.578125 C12.46462395 24.44640974 11.82035627 31.88476591 7.17578125 38.50390625 C3.51608814 42.93500526 -0.62197848 46.35315949 -6.13671875 48.19140625 C-24.04067722 49.41853149 -24.04067722 49.41853149 -31.13671875 44.19140625 C-36.49941093 39.32564307 -39.71201203 34.82947333 -40.3828125 27.50390625 C-40.74233283 18.96257469 -39.30883475 11.9328764 -33.69921875 5.31640625 C-32.85359375 4.61515625 -32.00796875 3.91390625 -31.13671875 3.19140625 C-29.93015625 2.10859375 -29.93015625 2.10859375 -28.69921875 1.00390625 C-20.48476077 -4.80632012 -8.73344087 -4.5822624 0 0 Z M-25.13671875 3.19140625 C-30.82935051 9.87283261 -31.78672601 16.65546191 -31.13671875 25.19140625 C-29.89391597 32.76224154 -26.87594873 38.08986849 -21.13671875 43.19140625 C-17.21191506 45.54628846 -13.66101511 45.65943691 -9.13671875 45.19140625 C-4.11936729 43.15044972 -0.97782331 40.96693333 1.19921875 35.921875 C3.19961301 27.69672449 3.31406158 18.12752228 -0.32421875 10.37890625 C-3.47830289 5.20409968 -6.60002337 2.44947061 -12.44921875 0.75390625 C-17.28491653 -0.12311714 -21.06035373 0.34061503 -25.13671875 3.19140625 Z " fill="#154734" transform="translate(224.13671875,265.80859375)"/>
<path d="M0 0 C6.09857142 3.55438212 9.44341981 8.83025944 11.625 15.375 C11.295 16.695 10.965 18.015 10.625 19.375 C-0.595 19.375 -11.815 19.375 -23.375 19.375 C-20.86094724 31.40692647 -20.86094724 31.40692647 -13.5625 39.6875 C-9.26396504 41.96319498 -5.86933937 42.95798416 -1.03515625 41.828125 C2.58809566 40.6771406 5.44187166 39.49708556 8.625 37.375 C9.615 37.375 10.605 37.375 11.625 37.375 C11.38091511 40.670146 10.42066695 41.57446798 8 43.9375 C0.39024904 49.72519792 -6.91213648 50.48316542 -16.375 49.375 C-23.89059818 46.19635991 -27.71612879 41.43139448 -31.375 34.375 C-33.99485457 26.5154363 -33.24170368 17.04991684 -29.77734375 9.56640625 C-23.28086228 -0.58547705 -11.28035674 -5.13716436 0 0 Z M-20.375 6.375 C-21.365 9.345 -22.355 12.315 -23.375 15.375 C-15.785 15.375 -8.195 15.375 -0.375 15.375 C1.01781327 11.55838965 1.01781327 11.55838965 -0.5 8.875 C-2.96989508 5.58180656 -5.0855153 2.83475453 -9.30078125 1.98828125 C-14.19286429 1.72110534 -17.08708957 2.52344778 -20.375 6.375 Z " fill="#154734" transform="translate(543.375,264.625)"/>
<path d="M0 0 C0.01213028 1.47791519 0.01213028 1.47791519 0.02450562 2.98568726 C0.10188165 12.25635165 0.18959898 21.52686773 0.28752708 30.79733849 C0.33754215 35.56375576 0.38387155 40.33015031 0.421875 45.09667969 C0.45866221 49.69385806 0.50500388 54.29084861 0.55806351 58.88786697 C0.57664248 60.64456524 0.5917374 62.40130381 0.60334396 64.15806198 C0.62014681 66.61257038 0.64916647 69.06664532 0.68115234 71.52099609 C0.68331253 72.25251389 0.68547272 72.98403168 0.68769836 73.73771667 C0.63878636 77.81970464 0.63878636 77.81970464 3 81 C4.98356483 81.71408334 6.98315437 82.38617742 9 83 C8.67 84.32 8.34 85.64 8 87 C0.74 87 -6.52 87 -14 87 C-14.33 85.68 -14.66 84.36 -15 83 C-14.0409375 82.5978125 -14.0409375 82.5978125 -13.0625 82.1875 C-10.66868314 81.11332248 -10.66868314 81.11332248 -10 78 C-9.90073353 75.91521164 -9.86172114 73.82737298 -9.85473633 71.74023438 C-9.84835648 70.44879517 -9.84197662 69.15735596 -9.83540344 67.82678223 C-9.83387495 66.41577186 -9.83276089 65.004761 -9.83203125 63.59375 C-9.82881813 62.14790819 -9.82545401 60.70206671 -9.82194519 59.25622559 C-9.81595849 56.22663621 -9.81410488 53.19707534 -9.81469727 50.16748047 C-9.814799 46.28351194 -9.80113308 42.39972575 -9.78392506 38.51580048 C-9.77281427 35.53040729 -9.77077775 32.54505836 -9.77130699 29.55964661 C-9.77012601 28.12750112 -9.76569762 26.69535452 -9.75797462 25.26322937 C-9.74819148 23.26209868 -9.75231269 21.26091455 -9.75708008 19.25976562 C-9.75565506 18.12075806 -9.75423004 16.98175049 -9.75276184 15.80822754 C-9.79207702 12.79232772 -9.79207702 12.79232772 -12 10 C-14.55183404 8.79549696 -14.55183404 8.79549696 -17 8 C-16 5 -16 5 -13.671875 3.61328125 C-12.22554687 2.96939453 -12.22554687 2.96939453 -10.75 2.3125 C-9.31914062 1.65701172 -9.31914062 1.65701172 -7.859375 0.98828125 C-4.99374624 -0.00216148 -2.99362592 -0.0796579 0 0 Z " fill="#154734" transform="translate(175,227)"/>
<path d="M0 0 C7.26 0 14.52 0 22 0 C22 1.32 22 2.64 22 4 C20.02 4.33 18.04 4.66 16 5 C17.68738717 9.25546371 19.37812421 13.50957462 21.07202148 17.76245117 C21.64814753 19.21032336 22.22334586 20.65856504 22.79760742 22.10717773 C23.62176533 24.1857054 24.44921768 26.26289445 25.27734375 28.33984375 C25.53466782 28.99089584 25.79199188 29.64194794 26.05711365 30.31272888 C27.14547059 33.38815904 27.14547059 33.38815904 29 36 C30.85209864 32.1336993 32.6782688 28.2556903 34.5 24.375 C35.02464844 23.28058594 35.54929687 22.18617188 36.08984375 21.05859375 C36.58613281 19.99511719 37.08242188 18.93164062 37.59375 17.8359375 C38.28500977 16.37486572 38.28500977 16.37486572 38.99023438 14.88427734 C40.08876394 11.74645621 40.18832394 9.29994906 40 6 C38.02 5.34 36.04 4.68 34 4 C34 2.68 34 1.36 34 0 C40.27 0 46.54 0 53 0 C53 1.32 53 2.64 53 4 C52.0736953 4.38300262 52.0736953 4.38300262 51.12867737 4.77374268 C48.67790923 6.18554534 48.112066 7.0887942 46.94116211 9.62011719 C46.59077377 10.36138855 46.24038544 11.10265991 45.87937927 11.86639404 C45.51570755 12.66845276 45.15203583 13.47051147 44.77734375 14.296875 C44.19721275 15.53645966 44.19721275 15.53645966 43.60536194 16.80108643 C42.37091022 19.44540743 41.15393848 22.09735139 39.9375 24.75 C39.11509883 26.52137539 38.29154384 28.29221559 37.46679688 30.0625 C36.3009856 32.5657564 35.13691966 35.06966858 33.98167419 37.57781982 C32.0571537 41.75612158 30.08482651 45.89824597 28 50 C26.68 50 25.36 50 24 50 C22.25688351 46.12701062 20.51544362 42.25327261 18.77539062 38.37890625 C18.18630502 37.06783938 17.59680346 35.75695931 17.00683594 34.44628906 C16.43379243 33.17307635 15.86138597 31.89957672 15.28961182 30.62579346 C14.71489707 29.34603438 14.13851253 28.06702391 13.56048584 26.78875732 C12.10740315 23.55687451 10.71128853 20.31560923 9.40722656 17.02050781 C9.02161057 16.06393784 9.02161057 16.06393784 8.62820435 15.08804321 C7.92630446 13.33517576 7.24209454 11.57525435 6.55908203 9.81494141 C4.76842738 6.58189284 3.1157312 5.8277295 0 4 C0 2.68 0 1.36 0 0 Z " fill="#154734" transform="translate(458,264)"/>
<path d="M0 0 C11.55 0 23.1 0 35 0 C35 6.6 35 13.2 35 20 C32.36 20 29.72 20 27 20 C27 21.65 27 23.3 27 25 C20.73 25 14.46 25 8 25 C8 23.35 8 21.7 8 20 C5.36 20 2.72 20 0 20 C0 13.4 0 6.8 0 0 Z " fill="#154734" transform="translate(339,68)"/>
<path d="M0 0 C1.02867187 -0.01417969 2.05734375 -0.02835937 3.1171875 -0.04296875 C6.42665616 0.21061391 9.689899 0.752399 12.125 3.1875 C12.19705511 4.87358966 12.20886068 6.56250659 12.1875 8.25 C12.17847656 9.16910156 12.16945313 10.08820313 12.16015625 11.03515625 C12.14855469 11.74542969 12.13695312 12.45570313 12.125 13.1875 C11.135 13.1875 10.145 13.1875 9.125 13.1875 C7.80859375 11.69140625 7.80859375 11.69140625 6.5625 9.75 C4.81963071 6.95490279 4.81963071 6.95490279 2.125 5.1875 C-3.1231621 4.71491958 -3.1231621 4.71491958 -7.9375 6.3125 C-9.44789821 9.33329641 -8.92624002 11.02196827 -7.875 14.1875 C-5.50798832 16.03213405 -2.87276487 17.13695975 -0.125 18.3125 C11.79661799 23.65149799 11.79661799 23.65149799 14.5 28.8125 C15.49607367 34.1912978 15.73861368 39.48159398 12.85546875 44.31640625 C9.58082791 48.28742641 6.68990242 50.90168598 1.42578125 51.48828125 C-5.3517606 51.51485985 -10.57499304 50.70750278 -16.875 48.1875 C-16.875 42.9075 -16.875 37.6275 -16.875 32.1875 C-15.885 32.1875 -14.895 32.1875 -13.875 32.1875 C-13.54886719 33.03054688 -13.22273437 33.87359375 -12.88671875 34.7421875 C-12.44972656 35.83789062 -12.01273438 36.93359375 -11.5625 38.0625 C-11.13324219 39.15304687 -10.70398438 40.24359375 -10.26171875 41.3671875 C-9.04567625 44.43621309 -9.04567625 44.43621309 -5.875 46.1875 C-0.94343992 46.74428904 1.03781643 46.91968485 5.1875 44.125 C7.40410451 41.30468286 7.40410451 41.30468286 7.296875 37.82421875 C5.79308711 33.15746366 4.04688989 32.42482427 -0.16601562 30.26171875 C-0.99810547 29.86597656 -1.83019531 29.47023438 -2.6875 29.0625 C-13.12793894 23.9283957 -13.12793894 23.9283957 -15.875 19.1875 C-16.7704305 14.67509431 -16.42182652 10.47254231 -14.625 6.25 C-10.34984621 1.2114259 -6.50386045 0.04054776 0 0 Z " fill="#154734" transform="translate(612.875,262.8125)"/>
<path d="M0 0 C0.99 0 1.98 0 3 0 C3 3.3 3 6.6 3 10 C4.04800781 9.9278125 5.09601562 9.855625 6.17578125 9.78125 C7.5546839 9.6874471 8.93359035 9.59370001 10.3125 9.5 C11.00279297 9.45230469 11.69308594 9.40460938 12.40429688 9.35546875 C15.27662359 9.16120511 18.12013788 9 21 9 C20.25 13.75 20.25 13.75 18 16 C15.41935871 16.14497985 12.95056116 16.18677545 10.375 16.125 C9.31539062 16.11146484 9.31539062 16.11146484 8.234375 16.09765625 C6.48943902 16.07407603 4.74467705 16.03820461 3 16 C3.06882757 20.93010753 3.15676828 25.85936287 3.26245117 30.78881836 C3.29570863 32.46580559 3.32373808 34.14290497 3.34643555 35.82006836 C3.37996737 38.23079225 3.43227978 40.64048762 3.48828125 43.05078125 C3.49467117 43.80087967 3.5010611 44.55097809 3.50764465 45.32380676 C3.60839449 49.40617542 3.60839449 49.40617542 5.40380859 52.97631836 C7.4965477 54.31844975 8.83983084 54.33541172 11.3125 54.25 C12.49585938 54.21132813 12.49585938 54.21132813 13.703125 54.171875 C16.51065641 53.96178762 19.24246511 53.56564818 22 53 C21.9375 54.8125 21.9375 54.8125 21 57 C14.9584773 60.84460536 7.98372828 60.90169656 1 60 C-1.66167069 58.77788078 -3.41773358 57.81512253 -5.12695312 55.42236328 C-6.42185326 51.82952236 -6.2446349 48.28404882 -6.1953125 44.515625 C-6.19106766 43.29223419 -6.19106766 43.29223419 -6.18673706 42.04412842 C-6.17556558 39.44593472 -6.15046675 36.84808905 -6.125 34.25 C-6.11496627 32.48568207 -6.10584111 30.72135872 -6.09765625 28.95703125 C-6.07563619 24.63788727 -6.04112733 20.31900259 -6 16 C-7.98 16 -9.96 16 -12 16 C-11.42582888 12.50138398 -10.26480957 10.95216818 -7.6875 8.5625 C-5.46207704 6.45085122 -3.62847922 4.51495898 -1.75 2.0625 C-1.1725 1.381875 -0.595 0.70125 0 0 Z " fill="#154734" transform="translate(671,254)"/>
<path d="M0 0 C0.33 2.64 0.66 5.28 1 8 C1.598125 7.21625 2.19625 6.4325 2.8125 5.625 C5.56477116 2.32227461 7.0640994 1.10398896 11.375 0.625 C15.52821019 1.05464243 17.0494171 2.1388287 20 5 C19.25 9.75 19.25 9.75 17 12 C13.91268105 11.85340788 10.90888395 11.41640812 7.84765625 10.99609375 C5.00420038 10.71772229 5.00420038 10.71772229 3.18359375 12.34765625 C-0.20519717 17.07854258 0.81563736 22.69976757 0.8125 28.3125 C0.79413086 30.02469727 0.79413086 30.02469727 0.77539062 31.77148438 C0.77345703 32.87427734 0.77152344 33.97707031 0.76953125 35.11328125 C0.76336792 36.62595581 0.76336792 36.62595581 0.75708008 38.16918945 C1.0144476 41.16836171 1.65175102 43.31658318 3 46 C4.91313095 47.22698662 4.91313095 47.22698662 7.125 47.8125 C7.84945313 48.04582031 8.57390625 48.27914062 9.3203125 48.51953125 C9.87460937 48.67808594 10.42890625 48.83664062 11 49 C10.67 49.99 10.34 50.98 10 52 C2.08 52 -5.84 52 -14 52 C-14 50.68 -14 49.36 -14 48 C-13.34805664 47.58645264 -12.69611328 47.17290527 -12.02441406 46.74682617 C-9.60445197 45.05199756 -9.60445197 45.05199756 -9.54589844 41.4465332 C-9.54653046 39.98112992 -9.56905761 38.51562994 -9.609375 37.05078125 C-9.61786469 35.89185616 -9.61786469 35.89185616 -9.62652588 34.70951843 C-9.64890673 32.24321371 -9.69910297 29.77836508 -9.75 27.3125 C-9.77006294 25.63999495 -9.78831408 23.96746711 -9.8046875 22.29492188 C-9.84877669 18.19605404 -9.91781325 14.09827383 -10 10 C-12.31 9.67 -14.62 9.34 -17 9 C-17 8.01 -17 7.02 -17 6 C-15.96939453 5.60167969 -15.96939453 5.60167969 -14.91796875 5.1953125 C-14.01691406 4.84210938 -13.11585938 4.48890625 -12.1875 4.125 C-11.29417969 3.77695312 -10.40085938 3.42890625 -9.48046875 3.0703125 C-2.3649635 0 -2.3649635 0 0 0 Z " fill="#154734" transform="translate(253,262)"/>
<path d="M0 0 C0.33 2.64 0.66 5.28 1 8 C1.78375 7.030625 2.5675 6.06125 3.375 5.0625 C4.91288705 3.16037654 5.79259913 2.10370043 8 1 C12.67181016 0.58472799 15.17508513 1.30006009 19 4 C18.125 10.875 18.125 10.875 17 12 C14.5 12.125 14.5 12.125 12 12 C11.67 11.67 11.34 11.34 11 11 C7.58399407 10.58307147 7.58399407 10.58307147 4 11 C1.4280136 13.36577168 1.02032738 14.80305024 0.65942383 18.29980469 C0.67513428 19.57758789 0.69084473 20.85537109 0.70703125 22.171875 C0.71339851 23.1955014 0.71339851 23.1955014 0.71989441 24.23980713 C0.73663028 26.41028004 0.77427041 28.57980979 0.8125 30.75 C0.82755354 32.22524697 0.84124078 33.70050855 0.85351562 35.17578125 C0.88651623 38.78415844 0.93826233 42.3919871 1 46 C3.97 46.66 6.94 47.32 10 48 C10 49.32 10 50.64 10 52 C2.08 52 -5.84 52 -14 52 C-14.33 50.68 -14.66 49.36 -15 48 C-13.7776062 47.4898938 -13.7776062 47.4898938 -12.53051758 46.96948242 C-9.6393014 45.17719326 -9.6393014 45.17719326 -9.43237305 41.63012695 C-9.43316264 40.24925863 -9.46130255 38.86822913 -9.51171875 37.48828125 C-9.51879349 36.76005661 -9.52586823 36.03183197 -9.53315735 35.28153992 C-9.56112919 32.95747763 -9.6238635 30.6358327 -9.6875 28.3125 C-9.71257969 26.73636295 -9.73539345 25.16018809 -9.75585938 23.58398438 C-9.81096374 19.72172602 -9.89724772 15.86127268 -10 12 C-12.31 11.01 -14.62 10.02 -17 9 C-17 8.01 -17 7.02 -17 6 C-14.921188 4.99063464 -12.8367638 3.99282154 -10.75 3 C-9.58984375 2.443125 -8.4296875 1.88625 -7.234375 1.3125 C-4 0 -4 0 0 0 Z " fill="#154734" transform="translate(573,262)"/>
<path d="M0 0 C45.87 0 91.74 0 139 0 C139 1.65 139 3.3 139 5 C93.13 5 47.26 5 0 5 C0 3.35 0 1.7 0 0 Z " fill="#154734" transform="translate(303,197)"/>
<path d="M0 0 C0.33 14.85 0.66 29.7 1 45 C3.64 45.99 6.28 46.98 9 48 C8.67 49.32 8.34 50.64 8 52 C0.74 52 -6.52 52 -14 52 C-14 50.68 -14 49.36 -14 48 C-12.515 47.505 -12.515 47.505 -11 47 C-9.44507025 43.37870175 -9.87381161 39.26687572 -9.90234375 35.390625 C-9.90446617 34.30041046 -9.90446617 34.30041046 -9.90663147 33.18817139 C-9.91221208 30.87540506 -9.92476096 28.56273688 -9.9375 26.25 C-9.94251751 24.67838682 -9.94707998 23.10677211 -9.95117188 21.53515625 C-9.96217515 17.69006657 -9.97942639 13.8450499 -10 10 C-11.98 9.34 -13.96 8.68 -16 8 C-13.8259095 4.73886424 -12.56063562 4.00992828 -9.125 2.3125 C-8.26132812 1.87550781 -7.39765625 1.43851562 -6.5078125 0.98828125 C-4 0 -4 0 0 0 Z " fill="#154734" transform="translate(451,262)"/>
<path d="M0 0 C0.33 14.85 0.66 29.7 1 45 C3.64 45.99 6.28 46.98 9 48 C8.67 49.32 8.34 50.64 8 52 C1.07 52 -5.86 52 -13 52 C-13.33 50.68 -13.66 49.36 -14 48 C-12.515 47.505 -12.515 47.505 -11 47 C-9.78922299 43.36766898 -9.87555836 40.04878013 -9.90234375 36.26953125 C-9.90446617 35.14390022 -9.90446617 35.14390022 -9.90663147 33.99552917 C-9.9122244 31.6011454 -9.92477556 29.20685547 -9.9375 26.8125 C-9.94251592 25.18815239 -9.94707866 23.56380332 -9.95117188 21.93945312 C-9.96219152 17.95959931 -9.97945127 13.97981556 -10 10 C-11.65 9.67 -13.3 9.34 -15 9 C-14.80078125 7.171875 -14.80078125 7.171875 -14 5 C-11.85546875 3.515625 -11.85546875 3.515625 -9.1875 2.25 C-7.87845703 1.60804688 -7.87845703 1.60804688 -6.54296875 0.953125 C-4 0 -4 0 0 0 Z " fill="#154734" transform="translate(649,262)"/>
<path d="M0 0 C2.67611698 0.36911958 3.8431469 0.84855563 5.8125 2.75 C7 5 7 5 6.875 7.5625 C5.93591239 10.17852977 5.3147832 11.4568112 3 13 C0.16179952 12.91130624 -0.80490015 12.19509985 -2.8125 10.1875 C-4 8 -4 8 -3.875 6 C-2.87137069 3.70599014 -1.58559997 1.93029562 0 0 Z " fill="#154734" transform="translate(643,239)"/>
<path d="M0 0 C2.91542066 1.45771033 3.7775916 3.01189057 5 6 C4.18795587 9.17435434 3.31819425 10.68180575 1 13 C-1.3850122 12.76919237 -2.8116082 12.12342911 -4.8125 10.8125 C-6 9 -6 9 -5.875 6 C-4.83505816 2.43448512 -4.03736945 0 0 0 Z " fill="#154734" transform="translate(447,239)"/>
</svg>
