<?xml version="1.0" encoding="UTF-8"?>
<svg version="1.1" xmlns="http://www.w3.org/2000/svg" width="400" height="300">
<path d="M0 0 C12.21 0 24.42 0 37 0 C38.44375 2.908125 39.8875 5.81625 41.375 8.8125 C45.00981114 16.10151441 48.71016646 23.35282963 52.5 30.5625 C52.92071777 31.36469971 53.34143555 32.16689941 53.77490234 32.9934082 C54.16887207 33.73937256 54.5628418 34.48533691 54.96875 35.25390625 C55.31357422 35.90689697 55.65839844 36.5598877 56.01367188 37.23266602 C56.92749151 38.87007698 57.95985489 40.43978234 59 42 C59.4532666 41.11852295 59.9065332 40.2370459 60.37353516 39.32885742 C62.08311882 36.00508012 63.79448636 32.68222388 65.50634766 29.35961914 C66.2418477 27.93147774 66.97688725 26.50309907 67.71142578 25.07446289 C68.77770854 23.00081204 69.84573987 20.92806928 70.9140625 18.85546875 C71.23307526 18.23415573 71.55208801 17.61284271 71.88076782 16.97270203 C74.82917612 11.25972584 77.91844768 5.64951259 81 0 C93.21 0 105.42 0 118 0 C118 4.29 118 8.58 118 13 C116.865625 13.268125 115.73125 13.53625 114.5625 13.8125 C113.386875 14.204375 112.21125 14.59625 111 15 C109.98001835 18.05994496 109.87325645 20.13847657 109.87060547 23.34179688 C109.86587723 24.97864441 109.86587723 24.97864441 109.86105347 26.64855957 C109.8630777 27.82672241 109.86510193 29.00488525 109.8671875 30.21875 C109.86623077 31.42817261 109.86527405 32.63759521 109.86428833 33.88366699 C109.86360738 36.44246472 109.86545574 39.00126418 109.86962891 41.56005859 C109.87497831 45.48408883 109.86968099 49.40800459 109.86328125 53.33203125 C109.86394205 55.81510442 109.86522324 58.29817752 109.8671875 60.78125 C109.86415115 62.54849426 109.86415115 62.54849426 109.86105347 64.35144043 C109.86420563 65.44267212 109.86735779 66.53390381 109.87060547 67.65820312 C109.87140106 68.61956177 109.87219666 69.58092041 109.87301636 70.57141113 C109.89934736 73.14180913 109.89934736 73.14180913 111 76 C114.51190809 77.22969878 114.51190809 77.22969878 118 78 C118.33 82.62 118.66 87.24 119 92 C120.41152344 92.51949219 121.82304687 93.03898437 123.27734375 93.57421875 C125.16420257 94.27827055 127.05091348 94.98271885 128.9375 95.6875 C129.86369141 96.02716797 130.78988281 96.36683594 131.74414062 96.71679688 C137.82167319 98.99853717 143.42398772 101.67472857 149 105 C149 105.99 149 106.98 149 108 C140.31051892 107.24836537 131.73840323 105.93850525 123.13085938 104.54882812 C102.45518201 101.35955942 81.83248695 100.62425799 60.9375 100.6875 C59.68442047 100.68932281 58.43134094 100.69114563 57.14028931 100.69302368 C29.66008979 100.76027135 3.52388565 103.24552039 -23.45166016 108.58862305 C-26 109 -26 109 -30 109 C-30 108.01 -30 107.02 -30 106 C-20.5306174 100.65523643 -11.33590639 96.40978355 -1 93 C-0.67 88.05 -0.34 83.1 0 78 C2.31 77.01 4.62 76.02 7 75 C7 55.53 7 36.06 7 16 C4.69 15.01 2.38 14.02 0 13 C0 8.71 0 4.42 0 0 Z M31 34 C29.02337769 35.97662231 29.836088 39.83950211 29.83203125 42.54296875 C29.82870285 43.30418533 29.82537445 44.06540192 29.82194519 44.84968567 C29.81687046 46.46627192 29.81453703 48.08286869 29.81469727 49.69946289 C29.81252442 52.15984747 29.79441296 54.6197738 29.77539062 57.08007812 C29.77245399 58.65104014 29.770471 60.22200428 29.76953125 61.79296875 C29.76234573 62.52444626 29.75516022 63.25592377 29.74775696 64.00956726 C29.7670365 68.37756732 30.20330748 71.99941451 32 76 C34.95377498 78.36980013 34.95377498 78.36980013 39 78 C39 80.64 39 83.28 39 86 C52.2 85.67 65.4 85.34 79 85 C79 82.69 79 80.38 79 78 C79.94875 77.87625 80.8975 77.7525 81.875 77.625 C85.08667191 77.28312823 85.08667191 77.28312823 87 75 C87.17553419 71.91475061 87.23122797 68.92035798 87.1953125 65.8359375 C87.19106766 64.47512558 87.19106766 64.47512558 87.18673706 63.08682251 C87.17552153 60.18274877 87.15041463 57.27898088 87.125 54.375 C87.11497197 52.40885861 87.10584581 50.4427124 87.09765625 48.4765625 C87.07557772 43.65092341 87.04103865 38.8255136 87 34 C86.34 34 85.68 34 85 34 C83.70837481 35.91009376 82.51630196 37.88764652 81.3671875 39.88671875 C81.01165802 40.4995723 80.65612854 41.11242584 80.28982544 41.74385071 C79.14449827 43.72109003 78.00940452 45.70397733 76.875 47.6875 C73.93084663 52.79991304 70.9750789 57.90551812 68 63 C67.62991821 63.63520569 67.25983643 64.27041138 66.87854004 64.92486572 C65.80670898 66.75429742 64.72208314 68.57544198 63.6328125 70.39453125 C63.0052002 71.4513208 62.37758789 72.50811035 61.73095703 73.59692383 C60 76 60 76 57 77 C56.7313916 76.28392578 56.4627832 75.56785156 56.18603516 74.83007812 C54.98652366 71.96784319 53.59134207 69.39558983 52.0234375 66.71875 C51.43852539 65.717229 50.85361328 64.71570801 50.25097656 63.68383789 C49.6319043 62.63317139 49.01283203 61.58250488 48.375 60.5 C47.74561523 59.42806396 47.11623047 58.35612793 46.46777344 57.25170898 C44.65094089 54.16435599 42.82747541 51.08106308 41 48 C40.53561523 47.21641113 40.07123047 46.43282227 39.59277344 45.62548828 C38.48620449 43.76636427 37.37151017 41.91263809 36.25 40.0625 C35.65703125 39.08410156 35.0640625 38.10570312 34.453125 37.09765625 C33.16818035 34.88384937 33.16818035 34.88384937 31 34 Z " fill="#003E7D" transform="translate(141,41)"/>
<path d="M0 0 C4.62 0 9.24 0 14 0 C14.4439209 1.13542236 14.8878418 2.27084473 15.34521484 3.44067383 C16.99283464 7.65204513 18.6451223 11.86157187 20.29882812 16.07055664 C21.01397157 17.89264739 21.72784736 19.7152362 22.44042969 21.53833008 C23.46476883 24.15838417 24.49365018 26.77661453 25.5234375 29.39453125 C25.84122162 30.21025101 26.15900574 31.02597076 26.48641968 31.8664093 C26.7865799 32.62697128 27.08674011 33.38753326 27.39599609 34.17114258 C27.65802826 34.83954666 27.92006042 35.50795074 28.19003296 36.1966095 C29.0634369 38.27402251 29.0634369 38.27402251 31 41 C32.65 41 34.3 41 36 41 C36 29.78 36 18.56 36 7 C34.68 6.34 33.36 5.68 32 5 C32 3.35 32 1.7 32 0 C38.27 0 44.54 0 51 0 C56.51185106 10.92527621 61.82512967 21.91099215 67 33 C67 24.09 67 15.18 67 6 C65.35 5.67 63.7 5.34 62 5 C62 3.35 62 1.7 62 0 C68.93 0 75.86 0 83 0 C83 1.65 83 3.3 83 5 C81.35 5.66 79.7 6.32 78 7 C77.67 20.2 77.34 33.4 77 47 C72.38 47 67.76 47 63 47 C57.55811679 36.71849734 52.14385054 26.43456911 47 16 C46.97099545 19.6041498 46.95319982 23.20826962 46.9375 26.8125 C46.92493164 28.34874023 46.92493164 28.34874023 46.91210938 29.91601562 C46.90727539 31.39038086 46.90727539 31.39038086 46.90234375 32.89453125 C46.89448853 34.25348511 46.89448853 34.25348511 46.88647461 35.63989258 C46.90079019 38.15284039 46.90079019 38.15284039 48 41 C50.01508358 41.73323796 50.01508358 41.73323796 52 42 C52 43.65 52 45.3 52 47 C38.47 47 24.94 47 11 47 C11 45.35 11 43.7 11 42 C12.65 42 14.3 42 16 42 C15.505 37.545 15.505 37.545 15 33 C6.585 33.495 6.585 33.495 -2 34 C-2.33 36.31 -2.66 38.62 -3 41 C-1.68 41.33 -0.36 41.66 1 42 C1 43.65 1 45.3 1 47 C-5.93 47 -12.86 47 -20 47 C-20 45.35 -20 43.7 -20 42 C-19.37965881 41.75041534 -18.75931763 41.50083069 -18.12017822 41.24368286 C-15.58046211 39.75390178 -15.13285178 38.80844247 -14.07714844 36.10107422 C-13.75711853 35.3003952 -13.43708862 34.49971619 -13.10736084 33.67477417 C-12.77802551 32.81014557 -12.44869019 31.94551697 -12.109375 31.0546875 C-11.75989807 30.1696756 -11.41042114 29.2846637 -11.050354 28.37283325 C-9.93718717 25.54513754 -8.8434449 22.71037272 -7.75 19.875 C-6.99866303 17.95653449 -6.24607387 16.03855887 -5.4921875 14.12109375 C-3.64688058 9.41962363 -1.81895898 4.71172314 0 0 Z M6 9 C5.16080602 11.26882087 4.32848276 13.53977027 3.5 15.8125 C3.26152344 16.45509766 3.02304688 17.09769531 2.77734375 17.75976562 C1.72931254 20.64933739 1 22.90076061 1 26 C4.63 26 8.26 26 12 26 C10.7915371 20.05064416 9.25422333 14.63555833 7 9 C6.67 9 6.34 9 6 9 Z " fill="#003E7E" transform="translate(241,164)"/>
<path d="M0 0 C2.47500772 0.51620273 4.95390216 0.97599211 7.44238281 1.421875 C21.56298182 4.08762165 35.2869998 9.14913526 47.62207031 16.546875 C47.62207031 17.536875 47.62207031 18.526875 47.62207031 19.546875 C38.93258923 18.79524037 30.36047354 17.48538025 21.75292969 16.09570312 C1.07725233 12.90643442 -19.54544274 12.17113299 -40.44042969 12.234375 C-41.69350922 12.23619781 -42.94658875 12.23802063 -44.23764038 12.23989868 C-71.7178399 12.30714635 -97.85404404 14.79239539 -124.82958984 20.13549805 C-127.37792969 20.546875 -127.37792969 20.546875 -131.37792969 20.546875 C-131.37792969 19.556875 -131.37792969 18.566875 -131.37792969 17.546875 C-114.97919152 8.29100458 -98.79534621 3.22450531 -80.37792969 -0.453125 C-79.57097656 -0.62118652 -78.76402344 -0.78924805 -77.93261719 -0.96240234 C-52.82046029 -6.02787714 -24.97444285 -5.22987979 0 0 Z " fill="#EEB210" transform="translate(242.3779296875,129.453125)"/>
<path d="M0 0 C6.6 0 13.2 0 20 0 C21.27875 2.536875 22.5575 5.07375 23.875 7.6875 C24.27444824 8.47729248 24.67389648 9.26708496 25.08544922 10.08081055 C25.40529785 10.71801025 25.72514648 11.35520996 26.0546875 12.01171875 C26.37937012 12.65584717 26.70405273 13.29997559 27.03857422 13.96362305 C28.12867049 16.27253443 29.07188125 18.6219214 30 21 C30.29769287 20.39937744 30.59538574 19.79875488 30.90209961 19.17993164 C32.24516208 16.47308771 33.59128848 13.76777908 34.9375 11.0625 C35.40607422 10.11697266 35.87464844 9.17144531 36.35742188 8.19726562 C36.80537109 7.29814453 37.25332031 6.39902344 37.71484375 5.47265625 C38.12855225 4.64000244 38.54226074 3.80734863 38.96850586 2.94946289 C40 1 40 1 41 0 C42.41570123 -0.08651611 43.835595 -0.10704904 45.25390625 -0.09765625 C46.53491211 -0.09282227 46.53491211 -0.09282227 47.84179688 -0.08789062 C48.73962891 -0.07951172 49.63746094 -0.07113281 50.5625 -0.0625 C51.46419922 -0.05798828 52.36589844 -0.05347656 53.29492188 -0.04882812 C55.53001314 -0.03700225 57.76497437 -0.0205222 60 0 C60 1.65 60 3.3 60 5 C58.35 5.33 56.7 5.66 55 6 C55.495 23.82 55.495 23.82 56 42 C57.65 42 59.3 42 61 42 C61 43.65 61 45.3 61 47 C54.07 47 47.14 47 40 47 C40 45.35 40 43.7 40 42 C41.98 41.505 41.98 41.505 44 41 C44 33.41 44 25.82 44 18 C40.04 25.26 36.08 32.52 32 40 C28 39 28 39 26.44433594 36.86694336 C25.96254883 35.95050049 25.48076172 35.03405762 24.984375 34.08984375 C24.50709961 33.199021 24.02982422 32.30819824 23.53808594 31.39038086 C22.94801758 30.25093018 22.35794922 29.11147949 21.75 27.9375 C19.8525 24.328125 17.955 20.71875 16 17 C16 25.25 16 33.5 16 42 C17.65 42 19.3 42 21 42 C21 43.65 21 45.3 21 47 C14.07 47 7.14 47 0 47 C0 45.35 0 43.7 0 42 C0.639375 41.87625 1.27875 41.7525 1.9375 41.625 C2.618125 41.41875 3.29875 41.2125 4 41 C5.47905238 38.04189524 5.12190903 35.0452845 5.09765625 31.8046875 C5.09553383 30.74352219 5.09553383 30.74352219 5.09336853 29.66091919 C5.087766 27.39890331 5.07521318 25.13698602 5.0625 22.875 C5.05748532 21.34244935 5.05292236 19.80989714 5.04882812 18.27734375 C5.03779577 14.51819112 5.02052952 10.75911228 5 7 C2.525 6.01 2.525 6.01 0 5 C0 3.35 0 1.7 0 0 Z " fill="#003E7E" transform="translate(27,164)"/>
<path d="M0 0 C6.6 0 13.2 0 20 0 C24.95 10.56 29.9 21.12 35 32 C35 23.75 35 15.5 35 7 C33.35 6.34 31.7 5.68 30 5 C30 3.35 30 1.7 30 0 C36.93 0 43.86 0 51 0 C51 1.65 51 3.3 51 5 C49.35 5.33 47.7 5.66 46 6 C45.67 19.53 45.34 33.06 45 47 C40.38 47 35.76 47 31 47 C29.43615993 44.04236848 27.87390456 41.08391701 26.3125 38.125 C25.87744141 37.30257812 25.44238281 36.48015625 24.99414062 35.6328125 C24.55908203 34.8078125 24.12402344 33.9828125 23.67578125 33.1328125 C23.28302002 32.38918457 22.89025879 31.64555664 22.4855957 30.87939453 C20.28166029 26.60770773 18.14963436 22.29926872 16 18 C16 25.59 16 33.18 16 41 C17.65 41.33 19.3 41.66 21 42 C21 43.65 21 45.3 21 47 C14.07 47 7.14 47 0 47 C0 45.35 0 43.7 0 42 C0.639375 41.87625 1.27875 41.7525 1.9375 41.625 C2.618125 41.41875 3.29875 41.2125 4 41 C5.50606515 37.98786971 5.12160331 34.88717378 5.09765625 31.5859375 C5.09553383 30.49147812 5.09553383 30.49147812 5.09336853 29.37490845 C5.08776531 27.04156415 5.07521235 24.70831536 5.0625 22.375 C5.05748541 20.79427222 5.05292243 19.21354293 5.04882812 17.6328125 C5.03779484 13.75517146 5.02052811 9.87760193 5 6 C3.35 5.67 1.7 5.34 0 5 C0 3.35 0 1.7 0 0 Z " fill="#003E7E" transform="translate(133,164)"/>
<path d="M0 0 C4.50404453 2.9090509 7.94135516 6.11716783 9.55859375 11.40625 C11.1038295 20.48621938 11.37235815 29.87466314 6.56640625 38.0078125 C3.42574901 42.0021646 -0.15248638 44.38416213 -5 46 C-22.60983476 47.12481667 -22.60983476 47.12481667 -28.421875 43.47265625 C-33.67429667 38.57126276 -36.69182617 33.01131176 -37.23828125 25.8984375 C-37.41310724 17.59880354 -37.13032258 10.05903416 -31.6796875 3.3828125 C-23.21993729 -4.42974371 -9.93463476 -5.56591588 0 0 Z M-23 9 C-25.90177537 15.97218383 -26.40729976 24.35521754 -24.20703125 31.6171875 C-22.57669163 35.02778303 -21.16360347 36.89093102 -18 39 C-14.93405985 39.54543879 -12.06781478 39.53376742 -9 39 C-5.65579986 36.438485 -3.51230683 33.90954429 -2 30 C-1.75469485 27.36439587 -1.6189149 24.88423787 -1.625 22.25 C-1.62661133 21.53569824 -1.62822266 20.82139648 -1.62988281 20.08544922 C-1.76504262 14.27755294 -2.62277355 10.69059229 -6 6 C-12.63150105 1.98619673 -17.85632505 3.497464 -23 9 Z " fill="#003E7E" transform="translate(124,166)"/>
<path d="M0 0 C1.79244141 0.01740234 1.79244141 0.01740234 3.62109375 0.03515625 C5.41740234 0.04869141 5.41740234 0.04869141 7.25 0.0625 C8.17683594 0.07410156 9.10367188 0.08570313 10.05859375 0.09765625 C13.56070018 7.7574767 16.63792207 15.55974486 19.68359375 23.41015625 C20.65274598 25.90712229 21.62448674 28.40302879 22.59765625 30.8984375 C23.02256348 31.99325439 23.4474707 33.08807129 23.88525391 34.21606445 C25.28153608 37.75414089 25.28153608 37.75414089 27.05859375 41.09765625 C28.04859375 41.42765625 29.03859375 41.75765625 30.05859375 42.09765625 C30.05859375 43.74765625 30.05859375 45.39765625 30.05859375 47.09765625 C22.79859375 47.09765625 15.53859375 47.09765625 8.05859375 47.09765625 C8.05859375 45.44765625 8.05859375 43.79765625 8.05859375 42.09765625 C10.03859375 41.60265625 10.03859375 41.60265625 12.05859375 41.09765625 C11.56359375 37.63265625 11.56359375 37.63265625 11.05859375 34.09765625 C5.44859375 33.76765625 -0.16140625 33.43765625 -5.94140625 33.09765625 C-6.27140625 36.06765625 -6.60140625 39.03765625 -6.94140625 42.09765625 C-5.29140625 42.09765625 -3.64140625 42.09765625 -1.94140625 42.09765625 C-1.94140625 43.74765625 -1.94140625 45.39765625 -1.94140625 47.09765625 C-8.87140625 47.09765625 -15.80140625 47.09765625 -22.94140625 47.09765625 C-22.94140625 45.44765625 -22.94140625 43.79765625 -22.94140625 42.09765625 C-22.06391724 41.46561279 -22.06391724 41.46561279 -21.16870117 40.82080078 C-17.71367146 38.14782043 -16.80758098 34.54024863 -15.3046875 30.52734375 C-14.81732368 29.27209396 -14.81732368 29.27209396 -14.32011414 27.9914856 C-13.28644008 25.32284824 -12.26965615 22.64816119 -11.25390625 19.97265625 C-10.22414648 17.29139496 -9.19098558 14.61148295 -8.15556335 11.93240356 C-7.5127031 10.26572138 -6.87377662 8.59751572 -6.23908997 6.92770386 C-3.63489579 0.12068047 -3.63489579 0.12068047 0 0 Z M2.05859375 10.09765625 C1.22139992 12.38797936 0.38870085 14.67976582 -0.44140625 16.97265625 C-0.67988281 17.62363281 -0.91835938 18.27460938 -1.1640625 18.9453125 C-2.49018158 22.43223214 -2.49018158 22.43223214 -2.94140625 26.09765625 C1.01859375 26.09765625 4.97859375 26.09765625 9.05859375 26.09765625 C7.40859375 20.81765625 5.75859375 15.53765625 4.05859375 10.09765625 C3.39859375 10.09765625 2.73859375 10.09765625 2.05859375 10.09765625 Z " fill="#003E7E" transform="translate(342.94140625,163.90234375)"/>
<path d="M0 0 C13.86 0 27.72 0 42 0 C42 4.95 42 9.9 42 15 C40.35 15 38.7 15 37 15 C36.44661458 13.20963542 35.89322917 11.41927083 35.33984375 9.62890625 C33.5993396 7.13954378 33.5993396 7.13954378 27 7 C27.33 18.55 27.66 30.1 28 42 C29.65 42 31.3 42 33 42 C33 43.65 33 45.3 33 47 C25.08 47 17.16 47 9 47 C9 45.35 9 43.7 9 42 C9.804375 41.87625 10.60875 41.7525 11.4375 41.625 C12.283125 41.41875 13.12875 41.2125 14 41 C15.47206013 38.05587973 15.23807192 35.03714085 15.31640625 31.8046875 C15.33718735 31.09724396 15.35796844 30.38980042 15.37937927 29.66091919 C15.44481078 27.39904575 15.50372974 25.13705538 15.5625 22.875 C15.60569133 21.34243578 15.64930582 19.80988343 15.69335938 18.27734375 C15.80048555 14.51834927 15.9017709 10.75923708 16 7 C13.36 7.33 10.72 7.66 8 8 C7.34 10.31 6.68 12.62 6 15 C4.02 15 2.04 15 0 15 C0 10.05 0 5.1 0 0 Z " fill="#003E7E" transform="translate(185,164)"/>
<path d="M0 0 C15.51 0 31.02 0 47 0 C47 0.99 47 1.98 47 3 C46.34 3 45.68 3 45 3 C45.66 4.98 46.32 6.96 47 9 C47.66 9 48.32 9 49 9 C49.91892116 5.32431536 49.95904856 3.83619425 49 0 C52.63 0 56.26 0 60 0 C58.98697465 4.05210142 57.95619685 5.55456238 55.4375 8.75 C51.9729092 13.51558 51.24887096 16.20557595 52 22 C52.66 22.33 53.32 22.66 54 23 C54 23.99 54 24.98 54 26 C49.71 26 45.42 26 41 26 C41 25.01 41 24.02 41 23 C41.515625 22.566875 42.03125 22.13375 42.5625 21.6875 C44.268023 20.04414058 44.268023 20.04414058 44.0625 17.4375 C42.52578718 12.46578205 39.81156613 8.35061914 37 4 C36.67 5.32 36.34 6.64 36 8 C34.68 8 33.36 8 32 8 C31.67 7.01 31.34 6.02 31 5 C30.01 4.67 29.02 4.34 28 4 C28.33 9.94 28.66 15.88 29 22 C29.66 22.33 30.32 22.66 31 23 C31 23.99 31 24.98 31 26 C26.71 26 22.42 26 18 26 C18 25.01 18 24.02 18 23 C18.66 22.67 19.32 22.34 20 22 C20.33 16.06 20.66 10.12 21 4 C17 5.5 17 5.5 16 8 C15.01 8 14.02 8 13 8 C13 6.35 13 4.7 13 3 C12.01 3.495 12.01 3.495 11 4 C11 9.94 11 15.88 11 22 C11.66 22.33 12.32 22.66 13 23 C13 23.99 13 24.98 13 26 C8.71 26 4.42 26 0 26 C0 25.01 0 24.02 0 23 C0.66 22.67 1.32 22.34 2 22 C2 16.06 2 10.12 2 4 C1.34 3.67 0.68 3.34 0 3 C0 2.01 0 1.02 0 0 Z " fill="#003E7E" transform="translate(313,223)"/>
<path d="M0 0 C3.96 0 7.92 0 12 0 C12 0.99 12 1.98 12 3 C11.01 3.495 11.01 3.495 10 4 C9.97315321 6.64590014 9.95323643 9.29153096 9.9375 11.9375 C9.92912109 12.69224609 9.92074219 13.44699219 9.91210938 14.22460938 C9.90347559 16.14994313 9.94775667 18.07535581 10 20 C11.0595877 21.28322547 11.0595877 21.28322547 13.5 21.125 C15.9404123 21.28322547 15.9404123 21.28322547 17 20 C17.07319621 17.30345146 17.09242537 14.63308542 17.0625 11.9375 C17.05798828 11.17888672 17.05347656 10.42027344 17.04882812 9.63867188 C17.0370068 7.75908129 17.01907078 5.87953101 17 4 C16.34 3.67 15.68 3.34 15 3 C15 2.01 15 1.02 15 0 C22.59 0 30.18 0 38 0 C40.31 4.95 42.62 9.9 45 15 C45 11.37 45 7.74 45 4 C44.34 3.67 43.68 3.34 43 3 C43 2.01 43 1.02 43 0 C46.63 0 50.26 0 54 0 C54 0.99 54 1.98 54 3 C53.34 3.33 52.68 3.66 52 4 C51.67 11.26 51.34 18.52 51 26 C48.36 26 45.72 26 43 26 C40.69 21.38 38.38 16.76 36 12 C36 15.3 36 18.6 36 22 C36.66 22.33 37.32 22.66 38 23 C38 23.99 38 24.98 38 26 C34.04 26 30.08 26 26 26 C26 25.01 26 24.02 26 23 C26.99 23 27.98 23 29 23 C28.505 13.595 28.505 13.595 28 4 C26.68 3.67 25.36 3.34 24 3 C23.9906543 3.55461914 23.98130859 4.10923828 23.97167969 4.68066406 C23.91784278 7.20466481 23.83422746 9.72683814 23.75 12.25 C23.72873047 13.55904297 23.72873047 13.55904297 23.70703125 14.89453125 C23.46308606 21.28589533 23.46308606 21.28589533 21.328125 24.578125 C18.37819865 26.37975787 16.44482962 26.5344483 13 26.5 C11.453125 26.51546875 11.453125 26.51546875 9.875 26.53125 C7 26 7 26 4.671875 24.578125 C2.12374505 20.64876574 2.32462621 16.84290377 2.25 12.25 C2.22035156 11.36183594 2.19070312 10.47367188 2.16015625 9.55859375 C2.08963082 7.37230551 2.03685363 5.18707232 2 3 C1.34 3 0.68 3 0 3 C0 2.01 0 1.02 0 0 Z " fill="#003E7E" transform="translate(152,223)"/>
<path d="M0 0 C3.63 0 7.26 0 11 0 C11 0.99 11 1.98 11 3 C10.34 3.66 9.68 4.32 9 5 C10.32 8.96 11.64 12.92 13 17 C13.66 15.22625 14.32 13.4525 15 11.625 C15.37125 10.62726563 15.7425 9.62953125 16.125 8.6015625 C17.10626277 6.14151939 17.10626277 6.14151939 17 4 C16.34 3.67 15.68 3.34 15 3 C15 2.01 15 1.02 15 0 C25.23 0 35.46 0 46 0 C46 2.64 46 5.28 46 8 C45.01 8 44.02 8 43 8 C42.505 6.515 42.505 6.515 42 5 C39.69 4.67 37.38 4.34 35 4 C35 6.31 35 8.62 35 11 C35.4125 10.505 35.825 10.01 36.25 9.5 C38 8 38 8 42 8 C42 11.3 42 14.6 42 18 C40.68 18 39.36 18 38 18 C37.505 16.515 37.505 16.515 37 15 C36.34 14.67 35.68 14.34 35 14 C35 16.64 35 19.28 35 22 C37.31 21.67 39.62 21.34 42 21 C42.33 19.68 42.66 18.36 43 17 C43.99 17 44.98 17 46 17 C46 19.97 46 22.94 46 26 C39.07 26 32.14 26 25 26 C25 25.01 25 24.02 25 23 C25.66 22.67 26.32 22.34 27 22 C27 16.06 27 10.12 27 4 C26.01 4 25.02 4 24 4 C23.82984375 4.66644531 23.6596875 5.33289063 23.484375 6.01953125 C21.69190972 12.83661993 19.50936426 19.41451106 17 26 C14.36 26 11.72 26 9 26 C7.68094674 22.60667609 6.37092599 19.20993431 5.0625 15.8125 C4.68931641 14.85279297 4.31613281 13.89308594 3.93164062 12.90429688 C3.57392578 11.97294922 3.21621094 11.04160156 2.84765625 10.08203125 C2.51773682 9.22843018 2.18781738 8.3748291 1.84790039 7.49536133 C1 5 1 5 0 0 Z " fill="#003E7E" transform="translate(220,223)"/>
<path d="M0 0 C14.52 0 29.04 0 44 0 C44 2.64 44 5.28 44 8 C43.01 8 42.02 8 41 8 C40.34 7.01 39.68 6.02 39 5 C35.43230448 4.26393501 35.43230448 4.26393501 32 4 C32 6.31 32 8.62 32 11 C32.99 10.67 33.98 10.34 35 10 C35.33 9.34 35.66 8.68 36 8 C36.99 8 37.98 8 39 8 C39 11.3 39 14.6 39 18 C38.01 18 37.02 18 36 18 C36 17.01 36 16.02 36 15 C34.68 14.67 33.36 14.34 32 14 C32 16.64 32 19.28 32 22 C35.43793339 21.81870185 35.43793339 21.81870185 39 21 C40.51294288 19.06402968 40.51294288 19.06402968 41 17 C41.99 17 42.98 17 44 17 C44 19.97 44 22.94 44 26 C37.07 26 30.14 26 23 26 C23 25.01 23 24.02 23 23 C23.66 22.67 24.32 22.34 25 22 C25 16.06 25 10.12 25 4 C24.34 3.67 23.68 3.34 23 3 C23 4.65 23 6.3 23 8 C21.68 8 20.36 8 19 8 C18.67 7.01 18.34 6.02 18 5 C15.98491642 4.26676204 15.98491642 4.26676204 14 4 C14.08672746 6.79322218 14.19355357 9.58312528 14.3125 12.375 C14.33505859 13.1690625 14.35761719 13.963125 14.38085938 14.78125 C14.47785075 16.86215581 14.72994825 18.93441332 15 21 C15.99 21.66 16.98 22.32 18 23 C18 23.99 18 24.98 18 26 C13.71 26 9.42 26 5 26 C5 25.01 5 24.02 5 23 C5.66 22.67 6.32 22.34 7 22 C7.495 13.09 7.495 13.09 8 4 C6.68 4.33 5.36 4.66 4 5 C3.67 5.99 3.34 6.98 3 8 C2.01 8 1.02 8 0 8 C0 5.36 0 2.72 0 0 Z " fill="#003E7E" transform="translate(93,223)"/>
<path d="M0 0 C3 1 3 1 4.3515625 3.00390625 C7.66813154 9.66756491 10.24805329 15.00803172 7.91796875 22.4609375 C5.57909619 28.39955631 2.39172644 33.92202967 -0.6875 39.5 C-1.29400391 40.60859375 -1.90050781 41.7171875 -2.52539062 42.859375 C-4.01225026 45.57552804 -5.50388008 48.28894017 -7 51 C-7.99 51 -8.98 51 -10 51 C-13.28282447 44.54123372 -16.22874986 38.14424381 -14.4765625 30.80859375 C-12.06774973 24.27828023 -8.5202414 18.15488024 -5.17431641 12.06445312 C-3.02229629 8.11649598 -1.26958837 4.34117314 0 0 Z " fill="#F0B310" transform="translate(208,25)"/>
<path d="M0 0 C0.99 0 1.98 0 3 0 C9.5662885 14.28167749 9.5662885 14.28167749 7.37109375 20.89453125 C4.99204083 26.64479817 1.83623188 32.0636692 -1.12890625 37.52758789 C-3.48981672 41.91796473 -5.44935513 46.25115008 -7 51 C-10.63675444 49.78774852 -10.93483486 48.9875632 -12.6875 45.6875 C-13.12449219 44.90761719 -13.56148437 44.12773438 -14.01171875 43.32421875 C-16.46393065 35.07586963 -15.70226514 28.3175273 -11.71875 20.703125 C-10.35534576 18.19299203 -8.93292243 15.72090963 -7.5 13.25 C-6.77501636 11.95703141 -6.05234129 10.66276555 -5.33203125 9.3671875 C-3.58101313 6.22940817 -1.79953834 3.11026591 0 0 Z " fill="#F8D48C" transform="translate(198,7)"/>
<path d="M0 0 C0.99 0.66 1.98 1.32 3 2 C3.29296875 4.6015625 3.29296875 4.6015625 3.1875 7.625 C3.16042969 8.62789063 3.13335937 9.63078125 3.10546875 10.6640625 C3.07066406 11.43492187 3.03585938 12.20578125 3 13 C4.32 12.67 5.64 12.34 7 12 C7 9.36 7 6.72 7 4 C6.34 3.67 5.68 3.34 5 3 C5 2.34 5 1.68 5 1 C8.465 0.505 8.465 0.505 12 0 C12 4.29 12 8.58 12 13 C13.65 13 15.3 13 17 13 C17 9.7 17 6.4 17 3 C16.34 3 15.68 3 15 3 C15 2.34 15 1.68 15 1 C19.91988527 0.23656953 24.12323948 -0.39336015 29 1 C31.13586678 4.20380017 31.23132175 5.01939967 31.125 8.6875 C31.10695312 9.49574219 31.08890625 10.30398438 31.0703125 11.13671875 C31.04710937 11.75160156 31.02390625 12.36648438 31 13 C31.66 13 32.32 13 33 13 C33 13.66 33 14.32 33 15 C30.03 15 27.06 15 24 15 C24 14.34 24 13.68 24 13 C24.66 13 25.32 13 26 13 C26 10.03 26 7.06 26 4 C24.68 4 23.36 4 22 4 C21.979375 5.258125 21.95875 6.51625 21.9375 7.8125 C21.92589844 8.52019531 21.91429687 9.22789062 21.90234375 9.95703125 C21.91736783 12.20305461 21.91736783 12.20305461 23 15 C18.78293756 15.19249739 14.56558401 15.37118014 10.34741211 15.53710938 C8.91268244 15.59549105 7.47810083 15.65763834 6.04370117 15.72363281 C3.98123128 15.8178682 1.9186072 15.89852573 -0.14453125 15.9765625 C-1.38565674 16.02893066 -2.62678223 16.08129883 -3.90551758 16.13525391 C-7 16 -7 16 -10 14 C-9.74438677 11.6568787 -9.40729228 9.32156597 -9 7 C-6.29120665 5.64560332 -3.99066732 5.93498549 -1 6 C-1.33 5.34 -1.66 4.68 -2 4 C-2.99 3.67 -3.98 3.34 -5 3 C-5 3.66 -5 4.32 -5 5 C-6.32 5 -7.64 5 -9 5 C-8.625 3.0625 -8.625 3.0625 -8 1 C-5.22899606 -0.38550197 -3.0665294 -0.1877467 0 0 Z M-5 9 C-5 10.32 -5 11.64 -5 13 C-4.01 12.67 -3.02 12.34 -2 12 C-2 11.01 -2 10.02 -2 9 C-2.99 9 -3.98 9 -5 9 Z " fill="#003E7E" transform="translate(162,277)"/>
<path d="M0 0 C2.56314499 -0.08132187 5.12368418 -0.14064175 7.6875 -0.1875 C8.40873047 -0.21263672 9.12996094 -0.23777344 9.87304688 -0.26367188 C14.41411939 -0.32587835 17.51038033 -0.02705799 21 3 C21.5234375 4.9375 21.5234375 4.9375 21.375 7 C21.34148437 7.680625 21.30796875 8.36125 21.2734375 9.0625 C21 11 21 11 20 14 C20.30806453 16.07647876 20.30806453 16.07647876 20.9375 18.1875 C21.288125 19.445625 21.63875 20.70375 22 22 C22.66 22 23.32 22 24 22 C24 23.32 24 24.64 24 26 C21.36 26 18.72 26 16 26 C15.82984375 25.28972656 15.6596875 24.57945312 15.484375 23.84765625 C15.24203125 22.92855469 14.9996875 22.00945312 14.75 21.0625 C14.51796875 20.14597656 14.2859375 19.22945312 14.046875 18.28515625 C13.23367434 15.80848559 13.23367434 15.80848559 10.890625 15.18359375 C10.26671875 15.12300781 9.6428125 15.06242188 9 15 C9.309375 16.0725 9.61875 17.145 9.9375 18.25 C10.66623492 20.82200559 11.35164156 23.40656624 12 26 C8.04 26 4.08 26 0 26 C0 25.01 0 24.02 0 23 C0.66 22.67 1.32 22.34 2 22 C2 16.06 2 10.12 2 4 C1.34 3.67 0.68 3.34 0 3 C0 2.01 0 1.02 0 0 Z M9 4 C9 6.31 9 8.62 9 11 C10.65 11 12.3 11 14 11 C14.67958603 8.60280568 14.67958603 8.60280568 15 6 C14.34 5.34 13.68 4.68 13 4 C11.68 4 10.36 4 9 4 Z " fill="#003E7E" transform="translate(268,223)"/>
<path d="M0 0 C2.64 0 5.28 0 8 0 C10.90666475 6.26600679 13.67387806 12.53690974 16.10546875 19.00390625 C16.93499873 21.17239896 16.93499873 21.17239896 19 23 C19 23.99 19 24.98 19 26 C14.71 26 10.42 26 6 26 C6 25.01 6 24.02 6 23 C6.66 22.67 7.32 22.34 8 22 C8 20.35 8 18.7 8 17 C4.04 17.495 4.04 17.495 0 18 C0.33 20.64 0.66 23.28 1 26 C-2.63 26 -6.26 26 -10 26 C-10 24.68 -10 23.36 -10 22 C-9.34 22 -8.68 22 -8 22 C-7.76216797 21.12601563 -7.76216797 21.12601563 -7.51953125 20.234375 C-5.5320262 13.2506556 -2.89283683 6.65466812 0 0 Z M3 7 C2.34 8.98 1.68 10.96 1 13 C2.65 13 4.3 13 6 13 C5.67 11.02 5.34 9.04 5 7 C4.34 7 3.68 7 3 7 Z " fill="#003E7E" transform="translate(78,223)"/>
<path d="M0 0 C2.64 0 5.28 0 8 0 C9.32 3.3 10.64 6.6 12 10 C13.32 6.7 14.64 3.4 16 0 C18.97 0 21.94 0 25 0 C25 0.99 25 1.98 25 3 C24.01 3 23.02 3 22 3 C22.33 7.29 22.66 11.58 23 16 C24.32 16 25.64 16 27 16 C27.33 13.03 27.66 10.06 28 7 C27.01 7 26.02 7 25 7 C25 6.34 25 5.68 25 5 C28.465 4.505 28.465 4.505 32 4 C32 8.29 32 12.58 32 17 C32.66 17 33.32 17 34 17 C34 17.66 34 18.32 34 19 C27.73 19 21.46 19 15 19 C15 18.34 15 17.68 15 17 C15.99 17 16.98 17 18 17 C17.67 14.69 17.34 12.38 17 10 C15.68 12.97 14.36 15.94 13 19 C11.68 19 10.36 19 9 19 C8.01 15.7 7.02 12.4 6 9 C6 11.31 6 13.62 6 16 C6.66 16.33 7.32 16.66 8 17 C8 17.66 8 18.32 8 19 C5.03 19 2.06 19 -1 19 C-1 18.34 -1 17.68 -1 17 C-0.01 17 0.98 17 2 17 C2 12.38 2 7.76 2 3 C1.34 3 0.68 3 0 3 C0 2.01 0 1.02 0 0 Z " fill="#003E7E" transform="translate(256,273)"/>
<path d="M0 0 C0 2.64 0 5.28 0 8 C-0.99 8 -1.98 8 -3 8 C-3.33 6.68 -3.66 5.36 -4 4 C-6.64 4 -9.28 4 -12 4 C-11.8353218 5.95061865 -11.8353218 5.95061865 -11 8 C-9.02508588 9.24591384 -9.02508588 9.24591384 -6.625 10.0625 C-3.42507977 11.27680198 -1.13453528 12.26135097 1 15 C1.5 18.4375 1.5 18.4375 1 22 C-1.72371729 24.83951304 -3.33070831 25.91263138 -7.26171875 26.42578125 C-8.95748047 26.36970703 -8.95748047 26.36970703 -10.6875 26.3125 C-11.82574219 26.28800781 -12.96398438 26.26351562 -14.13671875 26.23828125 C-17 26 -17 26 -19 25 C-19 22.36 -19 19.72 -19 17 C-17.68 17 -16.36 17 -15 17 C-14.34 18.32 -13.68 19.64 -13 21 C-11.02 21 -9.04 21 -7 21 C-6.67 19.68 -6.34 18.36 -6 17 C-6.60328125 16.82984375 -7.2065625 16.6596875 -7.828125 16.484375 C-16.45856354 13.86740331 -16.45856354 13.86740331 -19 10 C-19.5 7 -19.5 7 -19 4 C-14.33497465 -1.95192889 -6.87390609 -2.29130203 0 0 Z " fill="#003E7E" transform="translate(48,223)"/>
<path d="M0 0 C1.15886719 0.01546875 2.31773437 0.0309375 3.51171875 0.046875 C6.3125 0.25 6.3125 0.25 7.3125 1.25 C7.45365161 3.92058851 7.35497107 6.57432238 7.3125 9.25 C6.3225 9.25 5.3325 9.25 4.3125 9.25 C3.9103125 8.2909375 3.9103125 8.2909375 3.5 7.3125 C2.42582248 4.91868314 2.42582248 4.91868314 -0.6875 4.25 C-1.6775 4.58 -2.6675 4.91 -3.6875 5.25 C-3.6875 6.24 -3.6875 7.23 -3.6875 8.25 C-2.98882812 8.58773437 -2.29015625 8.92546875 -1.5703125 9.2734375 C-0.66023438 9.71945313 0.24984375 10.16546875 1.1875 10.625 C2.09242188 11.06585938 2.99734375 11.50671875 3.9296875 11.9609375 C6.3125 13.25 6.3125 13.25 8.3125 15.25 C8.73085298 19.01517686 8.98194258 21.31145148 6.73828125 24.45703125 C3.42729962 26.90427854 1.19718613 26.68487658 -2.875 26.5625 C-4.75251953 26.52576172 -4.75251953 26.52576172 -6.66796875 26.48828125 C-9.6875 26.25 -9.6875 26.25 -10.6875 25.25 C-10.82865161 22.57941149 -10.72997107 19.92567762 -10.6875 17.25 C-9.3675 17.25 -8.0475 17.25 -6.6875 17.25 C-6.3575 18.57 -6.0275 19.89 -5.6875 21.25 C-3.3775 21.58 -1.0675 21.91 1.3125 22.25 C1.3125 20.6 1.3125 18.95 1.3125 17.25 C0.69761719 17.06824219 0.08273437 16.88648438 -0.55078125 16.69921875 C-1.35902344 16.44785156 -2.16726563 16.19648438 -3 15.9375 C-3.80050781 15.69386719 -4.60101563 15.45023438 -5.42578125 15.19921875 C-7.86156078 14.17694858 -9.10571257 13.35738135 -10.6875 11.25 C-11.12109375 9.3125 -11.12109375 9.3125 -11.125 7.25 C-11.14433594 6.569375 -11.16367187 5.88875 -11.18359375 5.1875 C-10.6875 3.25 -10.6875 3.25 -9.078125 1.515625 C-5.91503888 -0.15895 -3.56074585 -0.07974795 0 0 Z " fill="#003E7E" transform="translate(303.6875,222.75)"/>
<path d="M0 0 C0.33 3.63 0.66 7.26 1 11 C1.99 11 2.98 11 4 11 C4.33 8.36 4.66 5.72 5 3 C4.34 3 3.68 3 3 3 C3 2.34 3 1.68 3 1 C4.98 0.67 6.96 0.34 9 0 C9.33 3.96 9.66 7.92 10 12 C11.32 12.33 12.64 12.66 14 13 C14 9.7 14 6.4 14 3 C13.34 3 12.68 3 12 3 C12 2.34 12 1.68 12 1 C17.35544537 0.04792082 21.64699256 -0.04732754 27 1 C28 2 28 2 28.09765625 4.50390625 C28.08605469 5.51324219 28.07445312 6.52257812 28.0625 7.5625 C28.05347656 8.57441406 28.04445312 9.58632813 28.03515625 10.62890625 C28.02355469 11.41136719 28.01195312 12.19382812 28 13 C28.66 13 29.32 13 30 13 C30 13.66 30 14.32 30 15 C27.36 15 24.72 15 22 15 C22.33 14.01 22.66 13.02 23 12 C23.03954234 9.66700175 23.04401732 7.33291811 23 5 C22.01 5 21.02 5 20 5 C19.67 7.64 19.34 10.28 19 13 C19.66 13 20.32 13 21 13 C21 13.66 21 14.32 21 15 C19.91460937 14.98839844 18.82921875 14.97679687 17.7109375 14.96484375 C16.26562673 14.95545862 14.82031409 14.94635919 13.375 14.9375 C12.66214844 14.92912109 11.94929688 14.92074219 11.21484375 14.91210938 C7.89166409 14.89686543 4.94773315 15.00985359 1.6640625 15.62890625 C-1 16 -1 16 -4 14 C-4.29296875 11.3984375 -4.29296875 11.3984375 -4.1875 8.375 C-4.16042969 7.37210937 -4.13335937 6.36921875 -4.10546875 5.3359375 C-4.05326172 4.17964844 -4.05326172 4.17964844 -4 3 C-4.66 3 -5.32 3 -6 3 C-6 2.34 -6 1.68 -6 1 C-3.92446352 0.4465236 -2.15634036 0 0 0 Z " fill="#003E7E" transform="translate(109,277)"/>
<path d="M0 0 C0.763125 0.20625 1.52625 0.4125 2.3125 0.625 C2.6425 2.275 2.9725 3.925 3.3125 5.625 C2.3225 5.955 1.3325 6.285 0.3125 6.625 C-0.3475 5.965 -1.0075 5.305 -1.6875 4.625 C-1.6875 5.285 -1.6875 5.945 -1.6875 6.625 C-1.0275 6.955 -0.3675 7.285 0.3125 7.625 C0.3125 8.615 0.3125 9.605 0.3125 10.625 C-1.3375 10.625 -2.9875 10.625 -4.6875 10.625 C-4.08566251 12.64545442 -3.41443904 14.64611039 -2.6875 16.625 C0.36943322 18.15346661 2.94234547 17.85742445 6.3125 17.625 C8.71333438 16.26614884 8.71333438 16.26614884 10.3125 14.625 C9.9825 13.635 9.6525 12.645 9.3125 11.625 C8.9825 12.945 8.6525 14.265 8.3125 15.625 C6.64638095 15.667721 4.97867115 15.66563832 3.3125 15.625 C2.3125 14.625 2.3125 14.625 2.0625 11.6875 C2.145 10.676875 2.2275 9.66625 2.3125 8.625 C5.23015 6.6799 6.93787285 6.17223683 10.3125 5.625 C10.3125 4.305 10.3125 2.985 10.3125 1.625 C12.125 1 12.125 1 14.3125 0.625 C15.3025 1.285 16.2925 1.945 17.3125 2.625 C17.6875 5.625 17.6875 5.625 17.3125 8.625 C16.3225 9.285 15.3325 9.945 14.3125 10.625 C13.66467496 12.88595228 13.36858855 15.10723277 13.03515625 17.43359375 C12.06836375 20.36532669 11.01380856 21.16446198 8.3125 22.625 C2.71507363 23.54892182 -2.13367245 23.64096417 -6.9375 20.5 C-8.97339467 17.15531591 -9.272927 15.47209172 -8.6875 11.625 C-8.0275 10.635 -7.3675 9.645 -6.6875 8.625 C-6.543125 7.449375 -6.39875 6.27375 -6.25 5.0625 C-6.064375 3.928125 -5.87875 2.79375 -5.6875 1.625 C-2.6875 -0.375 -2.6875 -0.375 0 0 Z M14.3125 3.625 C15.3125 5.625 15.3125 5.625 15.3125 5.625 Z " fill="#003E7E" transform="translate(228.6875,270.375)"/>
<path d="M0 0 C2.97 0 5.94 0 9 0 C9.99 2.97 10.98 5.94 12 9 C13.94268841 6.08596738 15.46395304 3.14191424 17 0 C19.97 0 22.94 0 26 0 C26 0.99 26 1.98 26 3 C25.01 3 24.02 3 23 3 C23 7.62 23 12.24 23 17 C23.99 17 24.98 17 26 17 C26 17.66 26 18.32 26 19 C22.7 19 19.4 19 16 19 C16 18.34 16 17.68 16 17 C16.66 16.67 17.32 16.34 18 16 C18 13.69 18 11.38 18 9 C16.68 12.3 15.36 15.6 14 19 C9.38 19 4.76 19 0 19 C0 18.34 0 17.68 0 17 C0.66 16.67 1.32 16.34 2 16 C2.46954261 12.95418731 2.46954261 12.95418731 2.625 9.4375 C2.69976562 8.23996094 2.77453125 7.04242188 2.8515625 5.80859375 C2.90054688 4.88175781 2.94953125 3.95492188 3 3 C2.01 3 1.02 3 0 3 C0 2.01 0 1.02 0 0 Z M6 8 C6 10.97 6 13.94 6 17 C6.99 17 7.98 17 9 17 C8.34 14.03 7.68 11.06 7 8 C6.67 8 6.34 8 6 8 Z " fill="#003E7E" transform="translate(61,273)"/>
<path d="M0 0 C7.59 0 15.18 0 23 0 C23 2.64 23 5.28 23 8 C21.68 8 20.36 8 19 8 C18.67 7.01 18.34 6.02 18 5 C17.01 4.67 16.02 4.34 15 4 C15.33 9.94 15.66 15.88 16 22 C16.66 22.33 17.32 22.66 18 23 C18 23.99 18 24.98 18 26 C13.71 26 9.42 26 5 26 C5 25.01 5 24.02 5 23 C5.66 22.67 6.32 22.34 7 22 C7.495 13.09 7.495 13.09 8 4 C4 5.5 4 5.5 3 8 C2.01 8 1.02 8 0 8 C0 5.36 0 2.72 0 0 Z " fill="#003E7E" transform="translate(49,223)"/>
<path d="M0 0 C2.31 0 4.62 0 7 0 C7 6.27 7 12.54 7 19 C7.66 19 8.32 19 9 19 C9 19.66 9 20.32 9 21 C7.08591243 21.24979445 5.16848389 21.47408014 3.25 21.6875 C2.18265625 21.81511719 1.1153125 21.94273437 0.015625 22.07421875 C-3 22 -3 22 -5.359375 20.83203125 C-7.48401689 18.45951447 -7.53754209 17.15353527 -7.5 14 C-7.5103125 13.13375 -7.520625 12.2675 -7.53125 11.375 C-7 9 -7 9 -5.21875 7.1875 C-3 6 -3 6 1 6 C1.33 5.01 1.66 4.02 2 3 C1.34 3 0.68 3 0 3 C0 2.01 0 1.02 0 0 Z M-1 9 C-3.36692966 11.84826598 -3.36692966 11.84826598 -2.625 15.1875 C-2.41875 16.115625 -2.2125 17.04375 -2 18 C-0.68 17.67 0.64 17.34 2 17 C2.2502157 14.08365871 2.2502157 14.08365871 2 11 C1.01 10.34 0.02 9.68 -1 9 Z " fill="#003E7E" transform="translate(317,271)"/>
<path d="M0 0 C3.96 0 7.92 0 12 0 C12 0.99 12 1.98 12 3 C11.01 3.495 11.01 3.495 10 4 C10 9.94 10 15.88 10 22 C10.66 22.33 11.32 22.66 12 23 C12 23.99 12 24.98 12 26 C8.04 26 4.08 26 0 26 C1 22 1 22 2 21 C2.08631874 19.65732587 2.10706473 18.31025678 2.09765625 16.96484375 C2.09443359 16.15595703 2.09121094 15.34707031 2.08789062 14.51367188 C2.07951172 13.66353516 2.07113281 12.81339844 2.0625 11.9375 C2.05573242 10.65649414 2.05573242 10.65649414 2.04882812 9.34960938 C2.03700373 7.23304337 2.01906769 5.11651315 2 3 C1.34 3 0.68 3 0 3 C0 2.01 0 1.02 0 0 Z " fill="#003E7E" transform="translate(207,223)"/>
<path d="M0 0 C1.14662109 -0.03867187 1.14662109 -0.03867187 2.31640625 -0.078125 C4.4375 0.25 4.4375 0.25 6.203125 1.44140625 C7.86764374 3.88024225 7.73891405 5.51370594 7.625 8.4375 C7.59792969 9.33855469 7.57085937 10.23960937 7.54296875 11.16796875 C7.50816406 11.85503906 7.47335937 12.54210937 7.4375 13.25 C8.0975 13.25 8.7575 13.25 9.4375 13.25 C9.4375 13.91 9.4375 14.57 9.4375 15.25 C6.4675 15.25 3.4975 15.25 0.4375 15.25 C0.4375 14.59 0.4375 13.93 0.4375 13.25 C1.0975 13.25 1.7575 13.25 2.4375 13.25 C2.4375 10.28 2.4375 7.31 2.4375 4.25 C1.1175 4.25 -0.2025 4.25 -1.5625 4.25 C-1.583125 5.508125 -1.60375 6.76625 -1.625 8.0625 C-1.63660156 8.77019531 -1.64820313 9.47789062 -1.66015625 10.20703125 C-1.64513217 12.45305461 -1.64513217 12.45305461 -0.5625 15.25 C-3.2025 15.25 -5.8425 15.25 -8.5625 15.25 C-8.5625 14.59 -8.5625 13.93 -8.5625 13.25 C-7.9025 13.25 -7.2425 13.25 -6.5625 13.25 C-6.5625 9.95 -6.5625 6.65 -6.5625 3.25 C-7.2225 3.25 -7.8825 3.25 -8.5625 3.25 C-8.5625 2.59 -8.5625 1.93 -8.5625 1.25 C-5.66691295 0.43211209 -3.00785913 0.06107328 0 0 Z " fill="#003E7E" transform="translate(299.5625,276.75)"/>
<path d="M0 0 C2.55078958 2.22165544 2.93332671 3.60829443 3.5 6.9375 C3 10 3 10 0.9375 12.9375 C-2 15 -2 15 -5.6875 14.9375 C-9 14 -9 14 -11 12 C-11.3359375 9.72265625 -11.3359375 9.72265625 -11.375 7.0625 C-11.40335937 6.18722656 -11.43171875 5.31195313 -11.4609375 4.41015625 C-11 2 -11 2 -9.19921875 0.1796875 C-5.83948744 -1.62251296 -3.59601057 -0.98073016 0 0 Z M-6 2 C-7.35439668 4.70879335 -7.06501451 7.00933268 -7 10 C-5.02 10.99 -5.02 10.99 -3 12 C-1.79438816 11.01732141 -1.79438816 11.01732141 -1.90234375 9.15234375 C-1.91394531 8.42144531 -1.92554687 7.69054687 -1.9375 6.9375 C-1.958125 5.638125 -1.97875 4.33875 -2 3 C-3.32 2.67 -4.64 2.34 -6 2 Z " fill="#003E7E" transform="translate(99,278)"/>
<path d="M0 0 C-0.020625 0.969375 -0.04125 1.93875 -0.0625 2.9375 C-0.35618499 5.87465895 -0.35618499 5.87465895 1 7 C1.3125 9.375 1.3125 9.375 1 12 C-0.5 13.875 -0.5 13.875 -3 15 C-5.77126779 14.94182453 -8.25526545 14.50320133 -11 14 C-11 12.35 -11 10.7 -11 9 C-10.01 9 -9.02 9 -8 9 C-7.67 9.66 -7.34 10.32 -7 11 C-6.01 10.67 -5.02 10.34 -4 10 C-4.969375 9.525625 -5.93875 9.05125 -6.9375 8.5625 C-10 7 -10 7 -11 6 C-11.04063832 4.33382885 -11.042721 2.66611905 -11 1 C-7.2297564 -1.56376565 -4.32597804 -0.83191885 0 0 Z M-6 2 C-5.67 2.99 -5.34 3.98 -5 5 C-4.34 5 -3.68 5 -3 5 C-3.33 4.01 -3.66 3.02 -4 2 C-4.66 2 -5.32 2 -6 2 Z " fill="#003E7E" transform="translate(338,278)"/>
<path d="M0 0 C-0.020625 0.969375 -0.04125 1.93875 -0.0625 2.9375 C-0.35618499 5.87465895 -0.35618499 5.87465895 1 7 C1.375 9.375 1.375 9.375 1 12 C-1.0625 13.875 -1.0625 13.875 -4 15 C-7.8125 14.6875 -7.8125 14.6875 -11 14 C-11 12.35 -11 10.7 -11 9 C-10.01 9 -9.02 9 -8 9 C-7.67 9.66 -7.34 10.32 -7 11 C-6.01 11.33 -5.02 11.66 -4 12 C-4 11.01 -4 10.02 -4 9 C-4.78375 8.87625 -5.5675 8.7525 -6.375 8.625 C-9 8 -9 8 -11 6 C-11.125 3.375 -11.125 3.375 -11 1 C-7.2297564 -1.56376565 -4.32597804 -0.83191885 0 0 Z M-6 2 C-5.67 2.99 -5.34 3.98 -5 5 C-4.34 5 -3.68 5 -3 5 C-3.33 4.01 -3.66 3.02 -4 2 C-4.66 2 -5.32 2 -6 2 Z " fill="#003E7E" transform="translate(207,278)"/>
<path d="M0 0 C0 1.32 0 2.64 0 4 C1.65 4 3.3 4 5 4 C5 4.66 5 5.32 5 6 C3.35 6 1.7 6 0 6 C0.33 8.97 0.66 11.94 1 15 C1.33 14.34 1.66 13.68 2 13 C2.99 13 3.98 13 5 13 C4.125 17.875 4.125 17.875 3 19 C0.5625 19.1875 0.5625 19.1875 -2 19 C-4 17 -4 17 -4.1953125 14.3984375 C-4.17210937 13.40070313 -4.14890625 12.40296875 -4.125 11.375 C-4.10695312 10.37210937 -4.08890625 9.36921875 -4.0703125 8.3359375 C-4.03550781 7.17964844 -4.03550781 7.17964844 -4 6 C-4.99 6 -5.98 6 -7 6 C-7 4 -7 4 -5.1875 1.875 C-3 0 -3 0 0 0 Z " fill="#003E7E" transform="translate(146,274)"/>
<path d="M0 0 C1.32 0 2.64 0 4 0 C4 1.65 4 3.3 4 5 C2.35 4.67 0.7 4.34 -1 4 C-0.67 2.68 -0.34 1.36 0 0 Z " fill="#003E7E" transform="translate(284,271)"/>
<path d="M0 0 C1.32 0 2.64 0 4 0 C4 1.65 4 3.3 4 5 C2.35 4.67 0.7 4.34 -1 4 C-0.67 2.68 -0.34 1.36 0 0 Z " fill="#003E7E" transform="translate(170,271)"/>
</svg>
